<?xml version="1.0" encoding="UTF-8"?>
<svg id="Layer_1" data-name="Layer 1" xmlns="http://www.w3.org/2000/svg" xmlns:xlink="http://www.w3.org/1999/xlink" viewBox="0 0 727.08 193">
  <defs>
    <style>
      .cls-1 {
        clip-path: url(#clippath-45);
      }

      .cls-2 {
        clip-path: url(#clippath-20);
      }

      .cls-3 {
        clip-path: url(#clippath-11);
      }

      .cls-4 {
        clip-path: url(#clippath-16);
      }

      .cls-5 {
        fill: #0c1f72;
      }

      .cls-6 {
        clip-path: url(#clippath-33);
      }

      .cls-7 {
        clip-path: url(#clippath-47);
      }

      .cls-8 {
        clip-path: url(#clippath-41);
      }

      .cls-9 {
        clip-path: url(#clippath-32);
      }

      .cls-10 {
        clip-path: url(#clippath-2);
      }

      .cls-11 {
        clip-path: url(#clippath-13);
      }

      .cls-12 {
        clip-path: url(#clippath-37);
      }

      .cls-13 {
        clip-path: url(#clippath-46);
      }

      .cls-14 {
        clip-path: url(#clippath-25);
      }

      .cls-15 {
        clip-path: url(#clippath-15);
      }

      .cls-16 {
        clip-path: url(#clippath-6);
      }

      .cls-17 {
        clip-path: url(#clippath-40);
      }

      .cls-18 {
        clip-path: url(#clippath-26);
      }

      .cls-19 {
        clip-path: url(#clippath-7);
      }

      .cls-20 {
        clip-path: url(#clippath-21);
      }

      .cls-21 {
        clip-path: url(#clippath-34);
      }

      .cls-22 {
        clip-path: url(#clippath-1);
      }

      .cls-23 {
        clip-path: url(#clippath-4);
      }

      .cls-24 {
        clip-path: url(#clippath-38);
      }

      .cls-25 {
        clip-path: url(#clippath-36);
      }

      .cls-26 {
        clip-path: url(#clippath-27);
      }

      .cls-27 {
        clip-path: url(#clippath-44);
      }

      .cls-28 {
        clip-path: url(#clippath-12);
      }

      .cls-29 {
        fill: #0e5947;
      }

      .cls-30 {
        clip-path: url(#clippath-24);
      }

      .cls-31 {
        clip-path: url(#clippath-30);
      }

      .cls-32 {
        clip-path: url(#clippath-22);
      }

      .cls-33 {
        clip-path: url(#clippath-9);
      }

      .cls-34 {
        clip-path: url(#clippath-52);
      }

      .cls-35 {
        clip-path: url(#clippath);
      }

      .cls-36 {
        clip-path: url(#clippath-50);
      }

      .cls-37 {
        clip-path: url(#clippath-48);
      }

      .cls-38 {
        clip-path: url(#clippath-39);
      }

      .cls-39 {
        clip-path: url(#clippath-19);
      }

      .cls-40 {
        clip-path: url(#clippath-31);
      }

      .cls-41 {
        clip-path: url(#clippath-54);
      }

      .cls-42 {
        clip-path: url(#clippath-3);
      }

      .cls-43 {
        clip-path: url(#clippath-43);
      }

      .cls-44 {
        clip-path: url(#clippath-8);
      }

      .cls-45 {
        clip-path: url(#clippath-29);
      }

      .cls-46 {
        clip-path: url(#clippath-18);
      }

      .cls-47 {
        clip-path: url(#clippath-14);
      }

      .cls-48 {
        clip-path: url(#clippath-17);
      }

      .cls-49 {
        clip-path: url(#clippath-5);
      }

      .cls-50 {
        clip-path: url(#clippath-42);
      }

      .cls-51 {
        clip-path: url(#clippath-10);
      }

      .cls-52 {
        clip-path: url(#clippath-23);
      }

      .cls-53 {
        clip-path: url(#clippath-53);
      }

      .cls-54 {
        clip-path: url(#clippath-49);
      }

      .cls-55 {
        clip-path: url(#clippath-51);
      }

      .cls-56 {
        clip-path: url(#clippath-28);
      }

      .cls-57 {
        clip-path: url(#clippath-35);
      }
    </style>
    <clipPath id="clippath">
      <path class="cls-5" d="m222.79,51.88l12.28,20.02h-24.57l12.28-20.02Zm-8.34-6.48l-29.48,46.9h13.03l7.22-11.69h35.14l7.37,11.69h13.1l-29.33-46.9c-1.79-2.9-3.95-4.99-8.49-4.99s-6.77,2.08-8.56,4.99"/>
    </clipPath>
    <clipPath id="clippath-1">
      <rect class="cls-5" x="265.89" y="41.54" width="11.32" height="50.77"/>
    </clipPath>
    <clipPath id="clippath-2">
      <path class="cls-29" d="m355.07,42.8l-28.88,38.04-28.66-38.04c-1.26-1.71-2.68-2.38-5.36-2.38-3.5,0-6.1,1.41-6.1,4.61v47.27h10.27v-33.42l24.71,32.38c1.19,1.49,2.76,2.16,4.99,2.16s3.8-.67,4.99-2.16l24.79-32.38v33.42h10.42v-47.27c0-3.2-2.68-4.61-6.1-4.61-2.61,0-3.8.74-5.06,2.38"/>
    </clipPath>
    <clipPath id="clippath-3">
      <path class="cls-29" d="m386.18,51.29h29.03c6.1,0,8.04,1.56,8.04,7.07v3.5c0,5.36-1.94,6.77-7.89,6.77h-29.18v-17.35Zm-11.32-9.75v50.77h11.32v-14.52h29.33c14.81,0,19.06-3.35,19.06-15.48v-4.39c0-11.98-4.54-16.38-19.06-16.38h-40.64Z"/>
    </clipPath>
    <clipPath id="clippath-4">
      <path class="cls-29" d="m467.69,51.88l12.28,20.02h-24.57l12.28-20.02Zm-8.34-6.48l-29.48,46.9h13.03l7.22-11.69h35.14l7.37,11.69h13.1l-29.33-46.9c-1.79-2.9-3.95-4.99-8.49-4.99s-6.77,2.08-8.56,4.99"/>
    </clipPath>
    <clipPath id="clippath-5">
      <path class="cls-29" d="m526.79,41.54c-14.96,0-19.35,4.62-19.35,17.42v15.93c0,12.8,4.39,17.42,19.35,17.42h35.21v-9.68h-34.61c-7,0-8.71-1.86-8.71-8.19v-14.89c0-6.25,1.71-8.26,8.63-8.26h34.69v-9.75h-35.21Z"/>
    </clipPath>
    <clipPath id="clippath-6">
      <polygon class="cls-29" points="566.32 41.54 566.32 51.29 587.6 51.29 587.6 92.3 599 92.3 599 51.29 620.28 51.29 620.28 41.54 566.32 41.54"/>
    </clipPath>
    <clipPath id="clippath-7">
      <path class="cls-29" d="m639.11,41.54c-10.2,0-14.37,3.87-14.37,14.29v2.53c0,8.71,2.98,12.88,14.37,12.88h24.19c3.95,0,5.66,1.19,5.66,4.39v2.75c0,3.42-1.71,4.32-5.73,4.32h-38.56v9.6h39.15c11.32,0,15.48-3.72,15.48-13.18v-4.02c0-9.16-4.17-12.88-15.48-12.88h-23.75c-3.65,0-4.99-1.19-4.99-4.39v-1.64c0-4.02,1.64-5.06,5.06-5.06h39.16v-9.6h-40.2Z"/>
    </clipPath>
    <clipPath id="clippath-8">
      <path class="cls-5" d="m188.89,123.32v-1c0-1.16.56-1.48,1.51-1.48h10.36v1.24c0,2.18-.81,2.61-2.69,2.61h-7.54c-1.02,0-1.64-.35-1.64-1.37m.01-10.47v2.85h9.38c1.78,0,2.48.48,2.48,2.34v.32h-10.79c-4.04,0-5.06,1.4-5.06,3.85v1.37c0,2.37,1.13,3.85,5.33,3.85h7.89c5.17,0,6.65-1.43,6.65-5.65v-3.55c0-3.71-1.83-5.38-6.49-5.38h-9.38Z"/>
    </clipPath>
    <clipPath id="clippath-9">
      <path class="cls-5" d="m214.51,112.85c-4.92,0-6.84,1.78-6.84,6.14v8.45h4.01v-8.42c0-2.32.7-2.91,2.93-2.91h2.5v-3.26h-2.61Z"/>
    </clipPath>
    <clipPath id="clippath-10">
      <polygon class="cls-5" points="220.35 108.73 220.35 112.85 218.3 112.85 218.3 116.1 220.35 116.1 220.35 127.43 224.44 127.43 224.44 116.1 229.04 116.1 229.04 112.85 224.44 112.85 224.44 108.73 220.35 108.73"/>
    </clipPath>
    <clipPath id="clippath-11">
      <path class="cls-5" d="m230.98,127.43h4.09v-12.88h-4.09v12.88Zm1.37-19.43c-1,0-1.37.35-1.37,1.21v1.56c0,.86.38,1.24,1.37,1.24h1.32c1.02,0,1.4-.38,1.4-1.24v-1.56c0-.86-.38-1.21-1.4-1.21h-1.32Z"/>
    </clipPath>
    <clipPath id="clippath-12">
      <path class="cls-5" d="m242.93,108.14c-3.15,0-4.68,1-4.68,3.93v15.37h4.01v-11.33h5.3v-3.26h-5.3v-.65c0-.94.3-1.21,1.29-1.21h4.04v-2.85h-4.66Z"/>
    </clipPath>
    <clipPath id="clippath-13">
      <path class="cls-5" d="m249.89,127.43h4.09v-13.29h-4.09v13.29Zm1.37-19.43c-1,0-1.37.35-1.37,1.21v1.56c0,.86.38,1.24,1.37,1.24h1.32c1.02,0,1.4-.38,1.4-1.24v-1.56c0-.86-.38-1.21-1.4-1.21h-1.32Z"/>
    </clipPath>
    <clipPath id="clippath-14">
      <path class="cls-5" d="m264.02,112.85c-5.41,0-7,1.67-7,6.32v1.97c0,4.63,1.59,6.3,7,6.3h10.58v-3.39h-10.44c-2.5,0-3.12-.7-3.12-3.01v-1.72c0-2.4.59-3.01,3.12-3.01h10.42v-3.45h-10.55Z"/>
    </clipPath>
    <clipPath id="clippath-15">
      <path class="cls-5" d="m277.5,127.43h4.09v-12.88h-4.09v12.88Zm1.37-19.43c-1,0-1.37.35-1.37,1.21v1.56c0,.86.38,1.24,1.37,1.24h1.32c1.02,0,1.4-.38,1.4-1.24v-1.56c0-.86-.38-1.21-1.4-1.21h-1.32Z"/>
    </clipPath>
    <clipPath id="clippath-16">
      <rect class="cls-5" x="307.32" y="108.14" width="4.09" height="19.3"/>
    </clipPath>
    <clipPath id="clippath-17">
      <path class="cls-5" d="m329.19,121.05v-4.76h7.97c2.53,0,3.15.48,3.15,3.01v1.72c0,2.42-.62,3.01-3.15,3.01h-4.84c-2.53,0-3.12-.59-3.12-2.99m-4.01-12.92v13c0,4.63,1.59,6.3,7,6.3h5.11c5.44,0,7.02-1.67,7.02-6.3v-1.97c0-4.65-1.59-6.32-7.02-6.32h-8.1v-4.71h-4.01Z"/>
    </clipPath>
    <clipPath id="clippath-18">
      <path class="cls-5" d="m362.08,112.85v8.18c0,2.48-.67,2.99-3.28,2.99h-4.2c-2.45,0-3.28-.51-3.28-2.99v-8.18h-4.04v8.29c0,4.63,1.59,6.3,7,6.3h4.74c5.46,0,7.05-1.67,7.05-6.3v-8.29h-3.98Z"/>
    </clipPath>
    <clipPath id="clippath-19">
      <path class="cls-5" d="m372.92,112.85c-3.12,0-4.07.97-4.07,3.5v1.1c0,2.56.62,3.85,3.93,3.85h8.18c.97,0,1.35.14,1.35,1.21v.49c0,1-.38,1.29-1.45,1.29h-12.03v3.15h12.54c4.09,0,4.93-1,4.93-3.88v-.75c0-3.07-.84-4.2-4.58-4.2h-7.91c-.7,0-1.02-.24-1.02-1.05v-.67c0-.75.32-1,1.1-1h12.42v-3.04h-13.39Z"/>
    </clipPath>
    <clipPath id="clippath-20">
      <path class="cls-5" d="m388.99,127.43h4.09v-12.88h-4.09v12.88Zm1.37-19.43c-1,0-1.37.35-1.37,1.21v1.56c0,.86.38,1.24,1.37,1.24h1.32c1.02,0,1.4-.38,1.4-1.24v-1.56c0-.86-.38-1.21-1.4-1.21h-1.32Z"/>
    </clipPath>
    <clipPath id="clippath-21">
      <path class="cls-5" d="m403.17,112.85c-5.41,0-7,1.67-7,6.32v8.26h4.01v-8.13c0-2.42.73-3.01,3.26-3.01h4.36c2.58,0,3.26.59,3.26,3.01v8.13h4.01v-8.26c0-4.65-1.59-6.32-7.02-6.32h-4.87Z"/>
    </clipPath>
    <clipPath id="clippath-22">
      <path class="cls-5" d="m422.03,118.26c0-2.1.65-2.32,2.67-2.32h6.67c1.21,0,1.64.24,1.64,1.21v1.88h-10.98v-.78Zm2.61-5.41c-5.14,0-6.62,1.43-6.62,5.68v3.36c0,3.88,1.8,5.54,6.43,5.54h12.49v-3.04h-12.49c-1.88,0-2.42-.32-2.42-2.1v-.67h14.99v-4.79c0-2.31-1.16-3.98-5.33-3.98h-7.05Z"/>
    </clipPath>
    <clipPath id="clippath-23">
      <path class="cls-5" d="m490.27,127.43h4.09v-12.78h-4.09v12.78Zm1.37-19.43c-1,0-1.37.35-1.37,1.21v1.56c0,.86.38,1.24,1.37,1.24h1.32c1.02,0,1.4-.38,1.4-1.24v-1.56c0-.86-.38-1.21-1.4-1.21h-1.32Z"/>
    </clipPath>
    <clipPath id="clippath-24">
      <path class="cls-5" d="m504.45,112.85c-5.41,0-7,1.67-7,6.32v8.26h4.01v-8.13c0-2.42.73-3.01,3.26-3.01h4.36c2.58,0,3.26.59,3.26,3.01v8.13h4.01v-8.26c0-4.65-1.59-6.32-7.03-6.32h-4.87Z"/>
    </clipPath>
    <clipPath id="clippath-25">
      <polygon class="cls-5" points="520.28 108.73 520.28 112.85 518.23 112.85 518.23 116.1 520.28 116.1 520.28 127.43 524.37 127.43 524.37 116.1 528.97 116.1 528.97 112.85 524.37 112.85 524.37 108.73 520.28 108.73"/>
    </clipPath>
    <clipPath id="clippath-26">
      <path class="cls-5" d="m534.78,118.26c0-2.1.65-2.32,2.66-2.32h6.67c1.21,0,1.64.24,1.64,1.21v1.88h-10.98v-.78Zm2.61-5.41c-5.14,0-6.62,1.43-6.62,5.68v3.36c0,3.88,1.8,5.54,6.43,5.54h12.49v-3.04h-12.49c-1.88,0-2.42-.32-2.42-2.1v-.67h14.99v-4.79c0-2.31-1.16-3.98-5.33-3.98h-7.05Z"/>
    </clipPath>
    <clipPath id="clippath-27">
      <rect class="cls-5" x="552.67" y="108.14" width="4.09" height="19.3"/>
    </clipPath>
    <clipPath id="clippath-28">
      <rect class="cls-5" x="559.94" y="108.14" width="4.09" height="19.3"/>
    </clipPath>
    <clipPath id="clippath-29">
      <path class="cls-5" d="m567.2,127.43h4.09v-12.78h-4.09v12.78Zm1.37-19.43c-1,0-1.37.35-1.37,1.21v1.56c0,.86.38,1.24,1.37,1.24h1.32c1.02,0,1.4-.38,1.4-1.24v-1.56c0-.86-.38-1.21-1.4-1.21h-1.32Z"/>
    </clipPath>
    <clipPath id="clippath-30">
      <path class="cls-5" d="m578.18,120.68v-1.91c0-1.94.57-2.5,2.42-2.5h6.3c1.96,0,2.61.54,2.61,2.48v3.9h-8.91c-1.86,0-2.42-.4-2.42-1.96m2.37-7.83c-4.98,0-6.3,1.37-6.3,5.81v2.23c0,3.53,1.64,4.87,6.11,4.87h9.15v1.18c0,1.16-.46,1.56-1.64,1.56h-9.7v3.28h10.08c3.63,0,5.17-1.37,5.17-4.63v-8.51c0-4.14-1.53-5.81-6.35-5.81h-6.51Z"/>
    </clipPath>
    <clipPath id="clippath-31">
      <path class="cls-5" d="m600.3,118.26c0-2.1.65-2.32,2.66-2.32h6.67c1.21,0,1.64.24,1.64,1.21v1.88h-10.98v-.78Zm2.61-5.41c-5.14,0-6.62,1.43-6.62,5.68v3.36c0,3.88,1.8,5.54,6.43,5.54h12.53v-3.04h-12.53c-1.88,0-2.42-.32-2.42-2.1v-.67h14.99v-4.79c0-2.31-1.16-3.98-5.33-3.98h-7.05Z"/>
    </clipPath>
    <clipPath id="clippath-32">
      <path class="cls-5" d="m625.11,112.85c-5.41,0-7,1.67-7,6.32v8.26h4.01v-8.13c0-2.42.73-3.01,3.26-3.01h4.36c2.58,0,3.26.59,3.26,3.01v8.13h4.01v-8.26c0-4.65-1.59-6.32-7.03-6.32h-4.87Z"/>
    </clipPath>
    <clipPath id="clippath-33">
      <path class="cls-5" d="m646.96,112.85c-5.41,0-7,1.67-7,6.32v1.97c0,4.63,1.59,6.3,7,6.3h10.58v-3.39h-10.44c-2.5,0-3.12-.7-3.12-3.01v-1.72c0-2.4.59-3.01,3.12-3.01h10.42v-3.45h-10.55Z"/>
    </clipPath>
    <clipPath id="clippath-34">
      <path class="cls-5" d="m664.32,118.26c0-2.1.65-2.32,2.66-2.32h6.68c1.21,0,1.64.24,1.64,1.21v1.88h-10.98v-.78Zm2.61-5.41c-5.14,0-6.62,1.43-6.62,5.68v3.36c0,3.88,1.8,5.54,6.43,5.54h12.52v-3.04h-12.52c-1.88,0-2.42-.32-2.42-2.1v-.67h14.99v-4.79c0-2.31-1.16-3.98-5.33-3.98h-7.05Z"/>
    </clipPath>
    <clipPath id="clippath-35">
      <path class="cls-5" d="m288.73,123.32v-1c0-1.16.57-1.48,1.51-1.48h10.36v1.24c0,2.18-.81,2.61-2.69,2.61h-7.54c-1.02,0-1.64-.35-1.64-1.37m.01-10.47v2.85h9.38c1.78,0,2.48.48,2.48,2.34v.32h-10.79c-4.04,0-5.06,1.4-5.06,3.85v1.37c0,2.37,1.13,3.85,5.33,3.85h7.89c5.17,0,6.65-1.43,6.65-5.65v-3.55c0-3.71-1.83-5.38-6.49-5.38h-9.38Z"/>
    </clipPath>
    <clipPath id="clippath-36">
      <path class="cls-5" d="m443.65,112.85c-3.12,0-4.07.97-4.07,3.5v1.1c0,2.56.62,3.85,3.93,3.85h8.18c.97,0,1.35.14,1.35,1.21v.49c0,1-.38,1.29-1.45,1.29h-12.03v3.15h12.54c4.09,0,4.92-1,4.92-3.88v-.75c0-3.07-.83-4.2-4.58-4.2h-7.91c-.7,0-1.02-.24-1.02-1.05v-.67c0-.75.32-1,1.1-1h12.42v-3.04h-13.39Z"/>
    </clipPath>
    <clipPath id="clippath-37">
      <path class="cls-5" d="m464.3,112.85c-3.12,0-4.06.97-4.06,3.5v1.1c0,2.56.62,3.85,3.93,3.85h8.18c.97,0,1.35.14,1.35,1.21v.49c0,1-.38,1.29-1.45,1.29h-12.03v3.15h12.54c4.09,0,4.92-1,4.92-3.88v-.75c0-3.07-.83-4.2-4.58-4.2h-7.91c-.7,0-1.02-.24-1.02-1.05v-.67c0-.75.32-1,1.1-1h12.42v-3.04h-13.39Z"/>
    </clipPath>
    <clipPath id="clippath-38">
      <path class="cls-5" d="m85.92,126.9c.11.02.21.03.32.05-.16-.02-.24-.04-.32-.05m2.2-14.84c.14.02.22.03.29.04-.1-.02-.2-.03-.29-.04m-31.28-58.06c-7.11,8.12-10.72,18.4-10.72,30.56,0,10.96,3.56,20.69,10.6,28.96,7.65,8.91,17.24,13.43,28.51,13.43.56,0,.9,0,1.12,0,.69.08,1.54.1,3.99.1v-15c-1.45,0-2.08,0-2.34-.02-.62-.08-1.27-.09-2.77-.09-6.89,0-12.33-2.61-17.11-8.18-4.71-5.54-7-11.82-7-19.22,0-8.53,2.29-15.29,6.99-20.66,4.59-5.21,11.67-8.08,19.94-8.08,5.9,0,11.87,1.87,15.95,5,3.05,2.34,6.8,8.14,8.32,15.82.98,4.98,1.32,13.6,1.59,20.53.12,2.98.23,5.8.38,8.1.54,8.36,6.98,21.63,21.94,21.63,11.48,0,16.38-6.25,18.28-9.97,2.47-4.85,2.47-10.16,2.47-13.01v-31.26h-15v31.26c0,7.2-1.16,7.98-5.75,7.98-5.9,0-6.85-6.41-6.97-7.6-.14-2.11-.24-4.83-.35-7.71-.31-7.84-.65-16.73-1.86-22.85-2.03-10.28-7.36-19.79-13.9-24.81-6.71-5.15-15.85-8.1-25.08-8.1-12.64,0-23.72,4.67-31.21,13.18"/>
    </clipPath>
    <clipPath id="clippath-39">
      <path class="cls-5" d="m141.97,64.92h15c0-8.71,7.26-9.15,8.72-9.15v-15c-11.79,0-23.72,8.3-23.72,24.15"/>
    </clipPath>
    <clipPath id="clippath-40">
      <path class="cls-5" d="m523.2,149.08c0-1.83.89-3.74,2.96-3.74s2.88,2.07,2.88,3.7c0,2.17-1.25,3.74-2.92,3.74s-2.92-1.59-2.92-3.7m-1.77.06c0,3.04,2.01,4.95,4.61,4.95,2.33,0,4.79-1.55,4.79-5.11,0-2.94-1.87-4.95-4.63-4.95s-4.77,1.89-4.77,5.11"/>
    </clipPath>
    <clipPath id="clippath-41">
      <path class="cls-5" d="m544.05,144.25l-1.37,4.83c-.32,1.13-.58,2.15-.74,3.12h-.06c-.22-.97-.5-1.99-.85-3.14l-1.49-4.81h-1.47l-1.57,4.91c-.32,1.03-.64,2.07-.85,3.04h-.06c-.18-.99-.44-1.99-.72-3.06l-1.27-4.89h-1.79l2.9,9.62h1.59l1.55-4.57c.34-1.03.64-2.03.88-3.18h.04c.24,1.13.52,2.09.85,3.16l1.47,4.59h1.59l3.1-9.62h-1.73Z"/>
    </clipPath>
    <clipPath id="clippath-42">
      <path class="cls-5" d="m551,145.29c1.97,0,2.45,1.73,2.42,2.84h-5.11c.14-1.21.91-2.84,2.68-2.84m-4.37,3.94c0,2.9,1.77,4.85,4.73,4.85,1.53,0,2.59-.32,3.2-.6l-.3-1.25c-.66.28-1.41.5-2.66.5-1.75,0-3.26-.98-3.3-3.34h6.76c.02-.18.06-.46.06-.81,0-1.77-.83-4.53-3.98-4.53-2.8,0-4.51,2.29-4.51,5.19"/>
    </clipPath>
    <clipPath id="clippath-43">
      <path class="cls-5" d="m558.87,146.14h-.08l-.06-1.89h-1.53c.06.9.08,1.87.08,3v6.62h1.73v-5.13c0-.3.04-.58.08-.82.24-1.31,1.11-2.25,2.34-2.25.24,0,.42.02.6.06v-1.65c-.16-.04-.3-.06-.5-.06-1.17,0-2.22.82-2.66,2.11"/>
    </clipPath>
    <clipPath id="clippath-44">
      <path class="cls-5" d="m567.25,145.29c1.97,0,2.45,1.73,2.42,2.84h-5.11c.14-1.21.91-2.84,2.68-2.84m-4.37,3.94c0,2.9,1.77,4.85,4.73,4.85,1.53,0,2.59-.32,3.2-.6l-.3-1.25c-.66.28-1.41.5-2.66.5-1.75,0-3.26-.98-3.3-3.34h6.76c.02-.18.06-.46.06-.81,0-1.77-.84-4.53-3.98-4.53-2.8,0-4.51,2.29-4.51,5.19"/>
    </clipPath>
    <clipPath id="clippath-45">
      <path class="cls-5" d="m574.61,149.12c0-2.13,1.07-3.72,2.88-3.72,1.31,0,2.27.91,2.52,2.03.06.22.08.52.08.74v1.67c0,.28-.02.52-.08.75-.32,1.31-1.39,2.09-2.56,2.09-1.89,0-2.84-1.61-2.84-3.56m5.49-9.36v5.75h-.04c-.44-.78-1.43-1.47-2.9-1.47-2.35,0-4.33,1.97-4.31,5.17,0,2.92,1.79,4.89,4.11,4.89,1.57,0,2.74-.82,3.28-1.89h.04l.08,1.67h1.57c-.06-.66-.08-1.63-.08-2.49v-11.63h-1.75Z"/>
    </clipPath>
    <clipPath id="clippath-46">
      <path class="cls-5" d="m590.76,150.65c-.04-.2-.08-.42-.08-.64v-1.73c0-.28.06-.52.1-.71.36-1.33,1.47-2.15,2.66-2.15,1.87,0,2.86,1.65,2.86,3.58,0,2.21-1.09,3.7-2.92,3.7-1.27,0-2.29-.83-2.62-2.05m-1.81-10.89v11.63c0,.85-.04,1.83-.08,2.49h1.51l.08-1.59h.06c.72,1.27,1.83,1.81,3.22,1.81,2.15,0,4.31-1.71,4.31-5.15.02-2.92-1.67-4.91-4.05-4.91-1.55,0-2.66.7-3.28,1.77h-.04v-6.04h-1.73Z"/>
    </clipPath>
    <clipPath id="clippath-47">
      <path class="cls-5" d="m606.04,144.25l-1.91,5.65c-.24.69-.44,1.43-.62,2.01h-.04c-.16-.58-.4-1.33-.62-1.97l-2.11-5.68h-1.91l3.56,8.87c.08.22.12.36.12.46s-.06.24-.14.42c-.4.89-.99,1.57-1.47,1.95-.52.44-1.09.72-1.53.85l.44,1.47c.44-.08,1.29-.38,2.15-1.13,1.19-1.03,2.05-2.72,3.3-6.02l2.62-6.86h-1.85Z"/>
    </clipPath>
    <clipPath id="clippath-48">
      <path class="cls-5" d="m616.5,140.48v8.82c0,2.62-.91,3.32-2.47,3.32-.58,0-1.09-.12-1.45-.26l-.26,1.41c.44.18,1.21.32,1.85.32,2.3,0,4.05-1.09,4.05-4.65v-8.96h-1.73Z"/>
    </clipPath>
    <clipPath id="clippath-49">
      <path class="cls-5" d="m629.22,140.48v7.93c0,2.96-1.27,4.27-3.26,4.27-1.79,0-3.12-1.27-3.12-4.27v-7.93h-1.75v7.89c0,4.15,2.07,5.72,4.81,5.72,2.9,0,5.07-1.69,5.07-5.8v-7.81h-1.75Z"/>
    </clipPath>
    <clipPath id="clippath-50">
      <path class="cls-5" d="m640.9,140.48l-4.09,5.03c-.34.44-.7.91-1.05,1.43h-.06v-6.46h-1.73v13.4h1.73v-5.11l1.27-1.47,4.41,6.58h2.05l-5.23-7.71,4.85-5.68h-2.15Z"/>
    </clipPath>
    <clipPath id="clippath-51">
      <path class="cls-5" d="m648.77,144.43c.26-.82.48-1.63.68-2.43h.04c.2.78.4,1.57.7,2.45l1.31,3.86h-4.04l1.31-3.88Zm-.3-3.96l-4.55,13.4h1.79l1.39-4.21h4.75l1.43,4.21h1.85l-4.57-13.4h-2.09Z"/>
    </clipPath>
    <clipPath id="clippath-52">
      <path class="cls-5" d="m658.82,152.56v-5.11h1.43c1.89,0,3.46.76,3.46,2.58,0,1.95-1.65,2.6-3.44,2.6-.62,0-1.11-.02-1.45-.08m0-10.73c.28-.06.73-.12,1.53-.12,1.75,0,2.94.62,2.94,2.19,0,1.29-1.07,2.25-2.9,2.25h-1.57v-4.31Zm-1.73-1.17v13.18c.58.08,1.49.16,2.68.16,2.19,0,3.7-.4,4.63-1.25.67-.66,1.13-1.53,1.13-2.68,0-1.99-1.49-3.04-2.76-3.36v-.04c1.41-.52,2.27-1.65,2.27-2.94,0-1.05-.42-1.85-1.11-2.37-.84-.68-1.95-.97-3.68-.97-1.21,0-2.41.12-3.16.28"/>
    </clipPath>
    <clipPath id="clippath-53">
      <path class="cls-5" d="m668.92,147.26c0-2.94,1.43-5.59,4.29-5.59s4.27,2.78,4.27,5.45c0,3.04-1.55,5.57-4.29,5.57s-4.27-2.57-4.27-5.43m-1.85.04c0,4.05,2.48,6.8,6.02,6.8s6.22-2.45,6.22-7.06c0-3.98-2.36-6.78-6.02-6.78s-6.22,2.78-6.22,7.04"/>
    </clipPath>
    <clipPath id="clippath-54">
      <path class="cls-5" d="m513.23,150.83c-.04-.22-.08-.45-.08-.71v-1.63c0-.24.06-.49.12-.71.33-1.3,1.43-2.14,2.61-2.14,1.83,0,2.83,1.63,2.83,3.53,0,2.18-1.06,3.67-2.89,3.67-1.24,0-2.28-.82-2.59-2.02m-.2-4.71h-.04l-.08-1.63h-1.55c.04.9.08,1.89.08,3.1v10.29h1.71v-5.16h.04c.57.94,1.67,1.49,2.92,1.49,2.24,0,4.32-1.69,4.32-5.1,0-2.89-1.73-4.83-4.02-4.83-1.55,0-2.67.69-3.38,1.85"/>
    </clipPath>
  </defs>
  <g>
    <path class="cls-5" d="m222.79,51.88l12.28,20.02h-24.57l12.28-20.02Zm-8.34-6.48l-29.48,46.9h13.03l7.22-11.69h35.14l7.37,11.69h13.1l-29.33-46.9c-1.79-2.9-3.95-4.99-8.49-4.99s-6.77,2.08-8.56,4.99"/>
    <g class="cls-35">
      <rect class="cls-5" x="184.98" y="40.42" width="75.85" height="51.88"/>
    </g>
  </g>
  <g>
    <rect class="cls-5" x="265.89" y="41.54" width="11.32" height="50.77"/>
    <g class="cls-22">
      <rect class="cls-5" x="265.89" y="41.54" width="11.32" height="50.77"/>
    </g>
  </g>
  <g>
    <path class="cls-29" d="m355.07,42.8l-28.88,38.04-28.66-38.04c-1.26-1.71-2.68-2.38-5.36-2.38-3.5,0-6.1,1.41-6.1,4.61v47.27h10.27v-33.42l24.71,32.38c1.19,1.49,2.76,2.16,4.99,2.16s3.8-.67,4.99-2.16l24.79-32.38v33.42h10.42v-47.27c0-3.2-2.68-4.61-6.1-4.61-2.61,0-3.8.74-5.06,2.38"/>
    <g class="cls-10">
      <rect class="cls-29" x="286.06" y="40.42" width="80.17" height="53"/>
    </g>
  </g>
  <g>
    <path class="cls-29" d="m386.18,51.29h29.03c6.1,0,8.04,1.56,8.04,7.07v3.5c0,5.36-1.94,6.77-7.89,6.77h-29.18v-17.35Zm-11.32-9.75v50.77h11.32v-14.52h29.33c14.81,0,19.06-3.35,19.06-15.48v-4.39c0-11.98-4.54-16.38-19.06-16.38h-40.64Z"/>
    <g class="cls-42">
      <rect class="cls-29" x="374.86" y="41.54" width="59.7" height="50.77"/>
    </g>
  </g>
  <g>
    <path class="cls-29" d="m467.69,51.88l12.28,20.02h-24.57l12.28-20.02Zm-8.34-6.48l-29.48,46.9h13.03l7.22-11.69h35.14l7.37,11.69h13.1l-29.33-46.9c-1.79-2.9-3.95-4.99-8.49-4.99s-6.77,2.08-8.56,4.99"/>
    <g class="cls-23">
      <rect class="cls-29" x="429.87" y="40.42" width="75.85" height="51.88"/>
    </g>
  </g>
  <g>
    <path class="cls-29" d="m526.79,41.54c-14.96,0-19.35,4.62-19.35,17.42v15.93c0,12.8,4.39,17.42,19.35,17.42h35.21v-9.68h-34.61c-7,0-8.71-1.86-8.71-8.19v-14.89c0-6.25,1.71-8.26,8.63-8.26h34.69v-9.75h-35.21Z"/>
    <g class="cls-49">
      <rect class="cls-29" x="507.44" y="41.54" width="54.57" height="50.77"/>
    </g>
  </g>
  <g>
    <polygon class="cls-29" points="566.32 41.54 566.32 51.29 587.6 51.29 587.6 92.3 599 92.3 599 51.29 620.28 51.29 620.28 41.54 566.32 41.54"/>
    <g class="cls-16">
      <rect class="cls-29" x="566.32" y="41.54" width="53.97" height="50.77"/>
    </g>
  </g>
  <g>
    <path class="cls-29" d="m639.11,41.54c-10.2,0-14.37,3.87-14.37,14.29v2.53c0,8.71,2.98,12.88,14.37,12.88h24.19c3.95,0,5.66,1.19,5.66,4.39v2.75c0,3.42-1.71,4.32-5.73,4.32h-38.56v9.6h39.15c11.32,0,15.48-3.72,15.48-13.18v-4.02c0-9.16-4.17-12.88-15.48-12.88h-23.75c-3.65,0-4.99-1.19-4.99-4.39v-1.64c0-4.02,1.64-5.06,5.06-5.06h39.16v-9.6h-40.2Z"/>
    <g class="cls-19">
      <rect class="cls-29" x="624.67" y="41.54" width="54.64" height="50.77"/>
    </g>
  </g>
  <g>
    <path class="cls-5" d="m188.89,123.32v-1c0-1.16.56-1.48,1.51-1.48h10.36v1.24c0,2.18-.81,2.61-2.69,2.61h-7.54c-1.02,0-1.64-.35-1.64-1.37m.01-10.47v2.85h9.38c1.78,0,2.48.48,2.48,2.34v.32h-10.79c-4.04,0-5.06,1.4-5.06,3.85v1.37c0,2.37,1.13,3.85,5.33,3.85h7.89c5.17,0,6.65-1.43,6.65-5.65v-3.55c0-3.71-1.83-5.38-6.49-5.38h-9.38Z"/>
    <g class="cls-44">
      <rect class="cls-5" x="184.91" y="112.85" width="19.86" height="14.59"/>
    </g>
  </g>
  <g>
    <path class="cls-5" d="m214.51,112.85c-4.92,0-6.84,1.78-6.84,6.14v8.45h4.01v-8.42c0-2.32.7-2.91,2.93-2.91h2.5v-3.26h-2.61Z"/>
    <g class="cls-33">
      <rect class="cls-5" x="207.67" y="112.85" width="9.45" height="14.59"/>
    </g>
  </g>
  <g>
    <polygon class="cls-5" points="220.35 108.73 220.35 112.85 218.3 112.85 218.3 116.1 220.35 116.1 220.35 127.43 224.44 127.43 224.44 116.1 229.04 116.1 229.04 112.85 224.44 112.85 224.44 108.73 220.35 108.73"/>
    <g class="cls-51">
      <rect class="cls-5" x="218.3" y="108.73" width="10.74" height="18.71"/>
    </g>
  </g>
  <g>
    <path class="cls-5" d="m230.98,127.43h4.09v-12.88h-4.09v12.88Zm1.37-19.43c-1,0-1.37.35-1.37,1.21v1.56c0,.86.38,1.24,1.37,1.24h1.32c1.02,0,1.4-.38,1.4-1.24v-1.56c0-.86-.38-1.21-1.4-1.21h-1.32Z"/>
    <g class="cls-3">
      <rect class="cls-5" x="230.98" y="108" width="4.09" height="19.43"/>
    </g>
  </g>
  <g>
    <path class="cls-5" d="m242.93,108.14c-3.15,0-4.68,1-4.68,3.93v15.37h4.01v-11.33h5.3v-3.26h-5.3v-.65c0-.94.3-1.21,1.29-1.21h4.04v-2.85h-4.66Z"/>
    <g class="cls-28">
      <rect class="cls-5" x="238.24" y="108.14" width="9.34" height="19.3"/>
    </g>
  </g>
  <g>
    <path class="cls-5" d="m249.89,127.43h4.09v-13.29h-4.09v13.29Zm1.37-19.43c-1,0-1.37.35-1.37,1.21v1.56c0,.86.38,1.24,1.37,1.24h1.32c1.02,0,1.4-.38,1.4-1.24v-1.56c0-.86-.38-1.21-1.4-1.21h-1.32Z"/>
    <g class="cls-11">
      <rect class="cls-5" x="249.89" y="108" width="4.09" height="19.43"/>
    </g>
  </g>
  <g>
    <path class="cls-5" d="m264.02,112.85c-5.41,0-7,1.67-7,6.32v1.97c0,4.63,1.59,6.3,7,6.3h10.58v-3.39h-10.44c-2.5,0-3.12-.7-3.12-3.01v-1.72c0-2.4.59-3.01,3.12-3.01h10.42v-3.45h-10.55Z"/>
    <g class="cls-47">
      <rect class="cls-5" x="257.02" y="112.85" width="17.58" height="14.59"/>
    </g>
  </g>
  <g>
    <path class="cls-5" d="m277.5,127.43h4.09v-12.88h-4.09v12.88Zm1.37-19.43c-1,0-1.37.35-1.37,1.21v1.56c0,.86.38,1.24,1.37,1.24h1.32c1.02,0,1.4-.38,1.4-1.24v-1.56c0-.86-.38-1.21-1.4-1.21h-1.32Z"/>
    <g class="cls-15">
      <rect class="cls-5" x="277.5" y="108" width="4.09" height="19.43"/>
    </g>
  </g>
  <g>
    <rect class="cls-5" x="307.32" y="108.14" width="4.09" height="19.3"/>
    <g class="cls-4">
      <rect class="cls-5" x="307.32" y="108.14" width="4.09" height="19.3"/>
    </g>
  </g>
  <g>
    <path class="cls-5" d="m329.19,121.05v-4.76h7.97c2.53,0,3.15.48,3.15,3.01v1.72c0,2.42-.62,3.01-3.15,3.01h-4.84c-2.53,0-3.12-.59-3.12-2.99m-4.01-12.92v13c0,4.63,1.59,6.3,7,6.3h5.11c5.44,0,7.02-1.67,7.02-6.3v-1.97c0-4.65-1.59-6.32-7.02-6.32h-8.1v-4.71h-4.01Z"/>
    <g class="cls-48">
      <rect class="cls-5" x="325.18" y="108.14" width="19.14" height="19.3"/>
    </g>
  </g>
  <g>
    <path class="cls-5" d="m362.08,112.85v8.18c0,2.48-.67,2.99-3.28,2.99h-4.2c-2.45,0-3.28-.51-3.28-2.99v-8.18h-4.04v8.29c0,4.63,1.59,6.3,7,6.3h4.74c5.46,0,7.05-1.67,7.05-6.3v-8.29h-3.98Z"/>
    <g class="cls-46">
      <rect class="cls-5" x="347.28" y="112.85" width="18.79" height="14.59"/>
    </g>
  </g>
  <g>
    <path class="cls-5" d="m372.92,112.85c-3.12,0-4.07.97-4.07,3.5v1.1c0,2.56.62,3.85,3.93,3.85h8.18c.97,0,1.35.14,1.35,1.21v.49c0,1-.38,1.29-1.45,1.29h-12.03v3.15h12.54c4.09,0,4.93-1,4.93-3.88v-.75c0-3.07-.84-4.2-4.58-4.2h-7.91c-.7,0-1.02-.24-1.02-1.05v-.67c0-.75.32-1,1.1-1h12.42v-3.04h-13.39Z"/>
    <g class="cls-39">
      <rect class="cls-5" x="368.83" y="112.85" width="17.48" height="14.59"/>
    </g>
  </g>
  <g>
    <path class="cls-5" d="m388.99,127.43h4.09v-12.88h-4.09v12.88Zm1.37-19.43c-1,0-1.37.35-1.37,1.21v1.56c0,.86.38,1.24,1.37,1.24h1.32c1.02,0,1.4-.38,1.4-1.24v-1.56c0-.86-.38-1.21-1.4-1.21h-1.32Z"/>
    <g class="cls-2">
      <rect class="cls-5" x="388.99" y="108" width="4.09" height="19.43"/>
    </g>
  </g>
  <g>
    <path class="cls-5" d="m403.17,112.85c-5.41,0-7,1.67-7,6.32v8.26h4.01v-8.13c0-2.42.73-3.01,3.26-3.01h4.36c2.58,0,3.26.59,3.26,3.01v8.13h4.01v-8.26c0-4.65-1.59-6.32-7.02-6.32h-4.87Z"/>
    <g class="cls-20">
      <rect class="cls-5" x="396.17" y="112.85" width="18.89" height="14.59"/>
    </g>
  </g>
  <g>
    <path class="cls-5" d="m422.03,118.26c0-2.1.65-2.32,2.67-2.32h6.67c1.21,0,1.64.24,1.64,1.21v1.88h-10.98v-.78Zm2.61-5.41c-5.14,0-6.62,1.43-6.62,5.68v3.36c0,3.88,1.8,5.54,6.43,5.54h12.49v-3.04h-12.49c-1.88,0-2.42-.32-2.42-2.1v-.67h14.99v-4.79c0-2.31-1.16-3.98-5.33-3.98h-7.05Z"/>
    <g class="cls-32">
      <rect class="cls-5" x="418.02" y="112.85" width="19" height="14.59"/>
    </g>
  </g>
  <g>
    <path class="cls-5" d="m490.27,127.43h4.09v-12.78h-4.09v12.78Zm1.37-19.43c-1,0-1.37.35-1.37,1.21v1.56c0,.86.38,1.24,1.37,1.24h1.32c1.02,0,1.4-.38,1.4-1.24v-1.56c0-.86-.38-1.21-1.4-1.21h-1.32Z"/>
    <g class="cls-52">
      <rect class="cls-5" x="490.27" y="108" width="4.09" height="19.43"/>
    </g>
  </g>
  <g>
    <path class="cls-5" d="m504.45,112.85c-5.41,0-7,1.67-7,6.32v8.26h4.01v-8.13c0-2.42.73-3.01,3.26-3.01h4.36c2.58,0,3.26.59,3.26,3.01v8.13h4.01v-8.26c0-4.65-1.59-6.32-7.03-6.32h-4.87Z"/>
    <g class="cls-30">
      <rect class="cls-5" x="497.46" y="112.85" width="18.89" height="14.59"/>
    </g>
  </g>
  <g>
    <polygon class="cls-5" points="520.28 108.73 520.28 112.85 518.23 112.85 518.23 116.1 520.28 116.1 520.28 127.43 524.37 127.43 524.37 116.1 528.97 116.1 528.97 112.85 524.37 112.85 524.37 108.73 520.28 108.73"/>
    <g class="cls-14">
      <rect class="cls-5" x="518.23" y="108.73" width="10.74" height="18.71"/>
    </g>
  </g>
  <g>
    <path class="cls-5" d="m534.78,118.26c0-2.1.65-2.32,2.66-2.32h6.67c1.21,0,1.64.24,1.64,1.21v1.88h-10.98v-.78Zm2.61-5.41c-5.14,0-6.62,1.43-6.62,5.68v3.36c0,3.88,1.8,5.54,6.43,5.54h12.49v-3.04h-12.49c-1.88,0-2.42-.32-2.42-2.1v-.67h14.99v-4.79c0-2.31-1.16-3.98-5.33-3.98h-7.05Z"/>
    <g class="cls-18">
      <rect class="cls-5" x="530.77" y="112.85" width="19" height="14.59"/>
    </g>
  </g>
  <g>
    <rect class="cls-5" x="552.67" y="108.14" width="4.09" height="19.3"/>
    <g class="cls-26">
      <rect class="cls-5" x="552.67" y="108.14" width="4.09" height="19.3"/>
    </g>
  </g>
  <g>
    <rect class="cls-5" x="559.94" y="108.14" width="4.09" height="19.3"/>
    <g class="cls-56">
      <rect class="cls-5" x="559.94" y="108.14" width="4.09" height="19.3"/>
    </g>
  </g>
  <g>
    <path class="cls-5" d="m567.2,127.43h4.09v-12.78h-4.09v12.78Zm1.37-19.43c-1,0-1.37.35-1.37,1.21v1.56c0,.86.38,1.24,1.37,1.24h1.32c1.02,0,1.4-.38,1.4-1.24v-1.56c0-.86-.38-1.21-1.4-1.21h-1.32Z"/>
    <g class="cls-45">
      <rect class="cls-5" x="567.2" y="108" width="4.09" height="19.43"/>
    </g>
  </g>
  <g>
    <path class="cls-5" d="m578.18,120.68v-1.91c0-1.94.57-2.5,2.42-2.5h6.3c1.96,0,2.61.54,2.61,2.48v3.9h-8.91c-1.86,0-2.42-.4-2.42-1.96m2.37-7.83c-4.98,0-6.3,1.37-6.3,5.81v2.23c0,3.53,1.64,4.87,6.11,4.87h9.15v1.18c0,1.16-.46,1.56-1.64,1.56h-9.7v3.28h10.08c3.63,0,5.17-1.37,5.17-4.63v-8.51c0-4.14-1.53-5.81-6.35-5.81h-6.51Z"/>
    <g class="cls-31">
      <rect class="cls-5" x="574.26" y="112.85" width="19.16" height="18.95"/>
    </g>
  </g>
  <g>
    <path class="cls-5" d="m600.3,118.26c0-2.1.65-2.32,2.66-2.32h6.67c1.21,0,1.64.24,1.64,1.21v1.88h-10.98v-.78Zm2.61-5.41c-5.14,0-6.62,1.43-6.62,5.68v3.36c0,3.88,1.8,5.54,6.43,5.54h12.53v-3.04h-12.53c-1.88,0-2.42-.32-2.42-2.1v-.67h14.99v-4.79c0-2.31-1.16-3.98-5.33-3.98h-7.05Z"/>
    <g class="cls-40">
      <rect class="cls-5" x="596.29" y="112.85" width="19" height="14.59"/>
    </g>
  </g>
  <g>
    <path class="cls-5" d="m625.11,112.85c-5.41,0-7,1.67-7,6.32v8.26h4.01v-8.13c0-2.42.73-3.01,3.26-3.01h4.36c2.58,0,3.26.59,3.26,3.01v8.13h4.01v-8.26c0-4.65-1.59-6.32-7.03-6.32h-4.87Z"/>
    <g class="cls-9">
      <rect class="cls-5" x="618.12" y="112.85" width="18.9" height="14.59"/>
    </g>
  </g>
  <g>
    <path class="cls-5" d="m646.96,112.85c-5.41,0-7,1.67-7,6.32v1.97c0,4.63,1.59,6.3,7,6.3h10.58v-3.39h-10.44c-2.5,0-3.12-.7-3.12-3.01v-1.72c0-2.4.59-3.01,3.12-3.01h10.42v-3.45h-10.55Z"/>
    <g class="cls-6">
      <rect class="cls-5" x="639.97" y="112.85" width="17.58" height="14.59"/>
    </g>
  </g>
  <g>
    <path class="cls-5" d="m664.32,118.26c0-2.1.65-2.32,2.66-2.32h6.68c1.21,0,1.64.24,1.64,1.21v1.88h-10.98v-.78Zm2.61-5.41c-5.14,0-6.62,1.43-6.62,5.68v3.36c0,3.88,1.8,5.54,6.43,5.54h12.52v-3.04h-12.52c-1.88,0-2.42-.32-2.42-2.1v-.67h14.99v-4.79c0-2.31-1.16-3.98-5.33-3.98h-7.05Z"/>
    <g class="cls-21">
      <rect class="cls-5" x="660.31" y="112.85" width="19" height="14.59"/>
    </g>
  </g>
  <g>
    <path class="cls-5" d="m288.73,123.32v-1c0-1.16.57-1.48,1.51-1.48h10.36v1.24c0,2.18-.81,2.61-2.69,2.61h-7.54c-1.02,0-1.64-.35-1.64-1.37m.01-10.47v2.85h9.38c1.78,0,2.48.48,2.48,2.34v.32h-10.79c-4.04,0-5.06,1.4-5.06,3.85v1.37c0,2.37,1.13,3.85,5.33,3.85h7.89c5.17,0,6.65-1.43,6.65-5.65v-3.55c0-3.71-1.83-5.38-6.49-5.38h-9.38Z"/>
    <g class="cls-57">
      <rect class="cls-5" x="284.74" y="112.85" width="19.86" height="14.59"/>
    </g>
  </g>
  <g>
    <path class="cls-5" d="m443.65,112.85c-3.12,0-4.07.97-4.07,3.5v1.1c0,2.56.62,3.85,3.93,3.85h8.18c.97,0,1.35.14,1.35,1.21v.49c0,1-.38,1.29-1.45,1.29h-12.03v3.15h12.54c4.09,0,4.92-1,4.92-3.88v-.75c0-3.07-.83-4.2-4.58-4.2h-7.91c-.7,0-1.02-.24-1.02-1.05v-.67c0-.75.32-1,1.1-1h12.42v-3.04h-13.39Z"/>
    <g class="cls-25">
      <rect class="cls-5" x="439.55" y="112.85" width="17.48" height="14.59"/>
    </g>
  </g>
  <g>
    <path class="cls-5" d="m464.3,112.85c-3.12,0-4.06.97-4.06,3.5v1.1c0,2.56.62,3.85,3.93,3.85h8.18c.97,0,1.35.14,1.35,1.21v.49c0,1-.38,1.29-1.45,1.29h-12.03v3.15h12.54c4.09,0,4.92-1,4.92-3.88v-.75c0-3.07-.83-4.2-4.58-4.2h-7.91c-.7,0-1.02-.24-1.02-1.05v-.67c0-.75.32-1,1.1-1h12.42v-3.04h-13.39Z"/>
    <g class="cls-12">
      <rect class="cls-5" x="460.21" y="112.85" width="17.48" height="14.59"/>
    </g>
  </g>
  <g>
    <path class="cls-5" d="m85.92,126.9c.11.02.21.03.32.05-.16-.02-.24-.04-.32-.05m2.2-14.84c.14.02.22.03.29.04-.1-.02-.2-.03-.29-.04m-31.28-58.06c-7.11,8.12-10.72,18.4-10.72,30.56,0,10.96,3.56,20.69,10.6,28.96,7.65,8.91,17.24,13.43,28.51,13.43.56,0,.9,0,1.12,0,.69.08,1.54.1,3.99.1v-15c-1.45,0-2.08,0-2.34-.02-.62-.08-1.27-.09-2.77-.09-6.89,0-12.33-2.61-17.11-8.18-4.71-5.54-7-11.82-7-19.22,0-8.53,2.29-15.29,6.99-20.66,4.59-5.21,11.67-8.08,19.94-8.08,5.9,0,11.87,1.87,15.95,5,3.05,2.34,6.8,8.14,8.32,15.82.98,4.98,1.32,13.6,1.59,20.53.12,2.98.23,5.8.38,8.1.54,8.36,6.98,21.63,21.94,21.63,11.48,0,16.38-6.25,18.28-9.97,2.47-4.85,2.47-10.16,2.47-13.01v-31.26h-15v31.26c0,7.2-1.16,7.98-5.75,7.98-5.9,0-6.85-6.41-6.97-7.6-.14-2.11-.24-4.83-.35-7.71-.31-7.84-.65-16.73-1.86-22.85-2.03-10.28-7.36-19.79-13.9-24.81-6.71-5.15-15.85-8.1-25.08-8.1-12.64,0-23.72,4.67-31.21,13.18"/>
    <g class="cls-24">
      <rect class="cls-5" x="46.12" y="40.83" width="110.85" height="86.24"/>
    </g>
  </g>
  <g>
    <path class="cls-5" d="m141.97,64.92h15c0-8.71,7.26-9.15,8.72-9.15v-15c-11.79,0-23.72,8.3-23.72,24.15"/>
    <g class="cls-38">
      <rect class="cls-5" x="141.97" y="40.77" width="23.72" height="24.15"/>
    </g>
  </g>
  <g>
    <path class="cls-5" d="m523.2,149.08c0-1.83.89-3.74,2.96-3.74s2.88,2.07,2.88,3.7c0,2.17-1.25,3.74-2.92,3.74s-2.92-1.59-2.92-3.7m-1.77.06c0,3.04,2.01,4.95,4.61,4.95,2.33,0,4.79-1.55,4.79-5.11,0-2.94-1.87-4.95-4.63-4.95s-4.77,1.89-4.77,5.11"/>
    <g class="cls-17">
      <rect class="cls-5" x="521.43" y="144.04" width="9.4" height="10.06"/>
    </g>
  </g>
  <g>
    <path class="cls-5" d="m544.05,144.25l-1.37,4.83c-.32,1.13-.58,2.15-.74,3.12h-.06c-.22-.97-.5-1.99-.85-3.14l-1.49-4.81h-1.47l-1.57,4.91c-.32,1.03-.64,2.07-.85,3.04h-.06c-.18-.99-.44-1.99-.72-3.06l-1.27-4.89h-1.79l2.9,9.62h1.59l1.55-4.57c.34-1.03.64-2.03.88-3.18h.04c.24,1.13.52,2.09.85,3.16l1.47,4.59h1.59l3.1-9.62h-1.73Z"/>
    <g class="cls-8">
      <rect class="cls-5" x="531.8" y="144.25" width="13.97" height="9.62"/>
    </g>
  </g>
  <g>
    <path class="cls-5" d="m551,145.29c1.97,0,2.45,1.73,2.42,2.84h-5.11c.14-1.21.91-2.84,2.68-2.84m-4.37,3.94c0,2.9,1.77,4.85,4.73,4.85,1.53,0,2.59-.32,3.2-.6l-.3-1.25c-.66.28-1.41.5-2.66.5-1.75,0-3.26-.98-3.3-3.34h6.76c.02-.18.06-.46.06-.81,0-1.77-.83-4.53-3.98-4.53-2.8,0-4.51,2.29-4.51,5.19"/>
    <g class="cls-50">
      <rect class="cls-5" x="546.63" y="144.03" width="8.49" height="10.04"/>
    </g>
  </g>
  <g>
    <path class="cls-5" d="m558.87,146.14h-.08l-.06-1.89h-1.53c.06.9.08,1.87.08,3v6.62h1.73v-5.13c0-.3.04-.58.08-.82.24-1.31,1.11-2.25,2.34-2.25.24,0,.42.02.6.06v-1.65c-.16-.04-.3-.06-.5-.06-1.17,0-2.22.82-2.66,2.11"/>
    <g class="cls-43">
      <rect class="cls-5" x="557.2" y="144.03" width="4.83" height="9.84"/>
    </g>
  </g>
  <g>
    <path class="cls-5" d="m567.25,145.29c1.97,0,2.45,1.73,2.42,2.84h-5.11c.14-1.21.91-2.84,2.68-2.84m-4.37,3.94c0,2.9,1.77,4.85,4.73,4.85,1.53,0,2.59-.32,3.2-.6l-.3-1.25c-.66.28-1.41.5-2.66.5-1.75,0-3.26-.98-3.3-3.34h6.76c.02-.18.06-.46.06-.81,0-1.77-.84-4.53-3.98-4.53-2.8,0-4.51,2.29-4.51,5.19"/>
    <g class="cls-27">
      <rect class="cls-5" x="562.88" y="144.03" width="8.49" height="10.04"/>
    </g>
  </g>
  <g>
    <path class="cls-5" d="m574.61,149.12c0-2.13,1.07-3.72,2.88-3.72,1.31,0,2.27.91,2.52,2.03.06.22.08.52.08.74v1.67c0,.28-.02.52-.08.75-.32,1.31-1.39,2.09-2.56,2.09-1.89,0-2.84-1.61-2.84-3.56m5.49-9.36v5.75h-.04c-.44-.78-1.43-1.47-2.9-1.47-2.35,0-4.33,1.97-4.31,5.17,0,2.92,1.79,4.89,4.11,4.89,1.57,0,2.74-.82,3.28-1.89h.04l.08,1.67h1.57c-.06-.66-.08-1.63-.08-2.49v-11.63h-1.75Z"/>
    <g class="cls-1">
      <rect class="cls-5" x="572.82" y="139.76" width="9.11" height="14.33"/>
    </g>
  </g>
  <g>
    <path class="cls-5" d="m590.76,150.65c-.04-.2-.08-.42-.08-.64v-1.73c0-.28.06-.52.1-.71.36-1.33,1.47-2.15,2.66-2.15,1.87,0,2.86,1.65,2.86,3.58,0,2.21-1.09,3.7-2.92,3.7-1.27,0-2.29-.83-2.62-2.05m-1.81-10.89v11.63c0,.85-.04,1.83-.08,2.49h1.51l.08-1.59h.06c.72,1.27,1.83,1.81,3.22,1.81,2.15,0,4.31-1.71,4.31-5.15.02-2.92-1.67-4.91-4.05-4.91-1.55,0-2.66.7-3.28,1.77h-.04v-6.04h-1.73Z"/>
    <g class="cls-13">
      <rect class="cls-5" x="588.87" y="139.76" width="9.2" height="14.33"/>
    </g>
  </g>
  <g>
    <path class="cls-5" d="m606.04,144.25l-1.91,5.65c-.24.69-.44,1.43-.62,2.01h-.04c-.16-.58-.4-1.33-.62-1.97l-2.11-5.68h-1.91l3.56,8.87c.08.22.12.36.12.46s-.06.24-.14.42c-.4.89-.99,1.57-1.47,1.95-.52.44-1.09.72-1.53.85l.44,1.47c.44-.08,1.29-.38,2.15-1.13,1.19-1.03,2.05-2.72,3.3-6.02l2.62-6.86h-1.85Z"/>
    <g class="cls-7">
      <rect class="cls-5" x="598.85" y="144.25" width="9.04" height="14.01"/>
    </g>
  </g>
  <g>
    <path class="cls-5" d="m616.5,140.48v8.82c0,2.62-.91,3.32-2.47,3.32-.58,0-1.09-.12-1.45-.26l-.26,1.41c.44.18,1.21.32,1.85.32,2.3,0,4.05-1.09,4.05-4.65v-8.96h-1.73Z"/>
    <g class="cls-37">
      <rect class="cls-5" x="612.32" y="140.48" width="5.9" height="13.62"/>
    </g>
  </g>
  <g>
    <path class="cls-5" d="m629.22,140.48v7.93c0,2.96-1.27,4.27-3.26,4.27-1.79,0-3.12-1.27-3.12-4.27v-7.93h-1.75v7.89c0,4.15,2.07,5.72,4.81,5.72,2.9,0,5.07-1.69,5.07-5.8v-7.81h-1.75Z"/>
    <g class="cls-54">
      <rect class="cls-5" x="621.09" y="140.48" width="9.88" height="13.62"/>
    </g>
  </g>
  <g>
    <path class="cls-5" d="m640.9,140.48l-4.09,5.03c-.34.44-.7.91-1.05,1.43h-.06v-6.46h-1.73v13.4h1.73v-5.11l1.27-1.47,4.41,6.58h2.05l-5.23-7.71,4.85-5.68h-2.15Z"/>
    <g class="cls-36">
      <rect class="cls-5" x="633.96" y="140.48" width="9.46" height="13.4"/>
    </g>
  </g>
  <g>
    <path class="cls-5" d="m648.77,144.43c.26-.82.48-1.63.68-2.43h.04c.2.78.4,1.57.7,2.45l1.31,3.86h-4.04l1.31-3.88Zm-.3-3.96l-4.55,13.4h1.79l1.39-4.21h4.75l1.43,4.21h1.85l-4.57-13.4h-2.09Z"/>
    <g class="cls-55">
      <rect class="cls-5" x="643.92" y="140.48" width="11.21" height="13.4"/>
    </g>
  </g>
  <g>
    <path class="cls-5" d="m658.82,152.56v-5.11h1.43c1.89,0,3.46.76,3.46,2.58,0,1.95-1.65,2.6-3.44,2.6-.62,0-1.11-.02-1.45-.08m0-10.73c.28-.06.73-.12,1.53-.12,1.75,0,2.94.62,2.94,2.19,0,1.29-1.07,2.25-2.9,2.25h-1.57v-4.31Zm-1.73-1.17v13.18c.58.08,1.49.16,2.68.16,2.19,0,3.7-.4,4.63-1.25.67-.66,1.13-1.53,1.13-2.68,0-1.99-1.49-3.04-2.76-3.36v-.04c1.41-.52,2.27-1.65,2.27-2.94,0-1.05-.42-1.85-1.11-2.37-.84-.68-1.95-.97-3.68-.97-1.21,0-2.41.12-3.16.28"/>
    <g class="cls-34">
      <rect class="cls-5" x="657.09" y="140.38" width="8.45" height="13.61"/>
    </g>
  </g>
  <g>
    <path class="cls-5" d="m668.92,147.26c0-2.94,1.43-5.59,4.29-5.59s4.27,2.78,4.27,5.45c0,3.04-1.55,5.57-4.29,5.57s-4.27-2.57-4.27-5.43m-1.85.04c0,4.05,2.48,6.8,6.02,6.8s6.22-2.45,6.22-7.06c0-3.98-2.36-6.78-6.02-6.78s-6.22,2.78-6.22,7.04"/>
    <g class="cls-53">
      <rect class="cls-5" x="667.07" y="140.26" width="12.24" height="13.83"/>
    </g>
  </g>
  <g>
    <path class="cls-5" d="m513.23,150.83c-.04-.22-.08-.45-.08-.71v-1.63c0-.24.06-.49.12-.71.33-1.3,1.43-2.14,2.61-2.14,1.83,0,2.83,1.63,2.83,3.53,0,2.18-1.06,3.67-2.89,3.67-1.24,0-2.28-.82-2.59-2.02m-.2-4.71h-.04l-.08-1.63h-1.55c.04.9.08,1.89.08,3.1v10.29h1.71v-5.16h.04c.57.94,1.67,1.49,2.92,1.49,2.24,0,4.32-1.69,4.32-5.1,0-2.89-1.73-4.83-4.02-4.83-1.55,0-2.67.69-3.38,1.85"/>
    <g class="cls-41">
      <rect class="cls-5" x="511.36" y="144.27" width="9.07" height="13.61"/>
    </g>
  </g>
</svg>