<?xml version="1.0" encoding="UTF-8"?>
<svg version="1.1" xmlns="http://www.w3.org/2000/svg" width="300" height="300">
<path d="M0 0 C99 0 198 0 300 0 C300 99 300 198 300 300 C201 300 102 300 0 300 C0 201 0 102 0 0 Z " fill="#FDFDFD" transform="translate(0,0)"/>
<path d="M0 0 C2.01407396 0.00535917 4.02792499 0.00002908 6.04199219 -0.00634766 C12.45837927 0.00005592 18.67876582 0.11147645 25.01855469 1.13037109 C25.01855469 1.79037109 25.01855469 2.45037109 25.01855469 3.13037109 C26.00082031 3.13423828 26.00082031 3.13423828 27.00292969 3.13818359 C34.07372516 3.43779357 39.02267731 5.27086508 45.20996094 8.64208984 C47.67190514 9.94668059 50.01191643 10.9279681 52.64355469 11.81787109 C56.01855469 13.13037109 56.01855469 13.13037109 58.01855469 16.13037109 C58.74042969 16.56349609 59.46230469 16.99662109 60.20605469 17.44287109 C70.73571769 23.7606689 79.25735339 34.86139717 84.01855469 46.13037109 C84.01855469 47.12037109 84.01855469 48.11037109 84.01855469 49.13037109 C84.67855469 49.13037109 85.33855469 49.13037109 86.01855469 49.13037109 C86.69535127 50.85559809 87.35957469 52.58576048 88.01855469 54.31787109 C88.38980469 55.28080078 88.76105469 56.24373047 89.14355469 57.23583984 C89.99492241 60.05219467 90.18928116 62.21201548 90.01855469 65.13037109 C90.67855469 65.13037109 91.33855469 65.13037109 92.01855469 65.13037109 C95.71832999 78.67294485 96.15526143 91.18628288 96.01855469 105.13037109 C96.67855469 105.13037109 97.33855469 105.13037109 98.01855469 105.13037109 C98.04361084 106.1685498 98.06866699 107.20672852 98.09448242 108.27636719 C98.18949557 112.17164988 98.28947688 116.06679264 98.39086914 119.96191406 C98.43386646 121.63961486 98.47556192 123.3173496 98.51586914 124.99511719 C97.87907703 141.34498891 97.87907703 141.34498891 103.01855469 156.13037109 C103.01855469 156.79037109 103.01855469 157.45037109 103.01855469 158.13037109 C103.67855469 158.13037109 104.33855469 158.13037109 105.01855469 158.13037109 C105.01855469 159.12037109 105.01855469 160.11037109 105.01855469 161.13037109 C108.55256322 162.20707148 111.89765645 162.33008579 115.58105469 162.38037109 C117.28455078 162.41904297 117.28455078 162.41904297 119.02246094 162.45849609 C121.92695295 162.33500482 121.92695295 162.33500482 123.85839844 161.11474609 C126.79848549 156.08591032 126.17713323 148.75198625 126.22387695 143.06201172 C126.23377655 142.300065 126.24367615 141.53811829 126.25387573 140.75308228 C126.28516401 138.2642922 126.31011717 135.77548311 126.33496094 133.28662109 C126.35555878 131.54927101 126.37655594 129.81192562 126.39793396 128.07458496 C126.45286257 123.52416813 126.50239943 118.97370829 126.55078125 114.42321777 C126.6100931 108.95146022 126.67615876 103.47978047 126.74108124 98.00808716 C126.83872268 89.71556306 126.92783008 81.42298674 127.01855469 73.13037109 C138.56855469 73.13037109 150.11855469 73.13037109 162.01855469 73.13037109 C162.10936885 84.08430515 162.18256465 95.03798413 162.22580338 105.99221134 C162.24656866 111.08015634 162.2746812 116.16782767 162.3203125 121.25561523 C162.36416855 126.17695699 162.38777466 131.09803758 162.39806366 136.01955986 C162.40538438 137.88560528 162.41967721 139.75163841 162.44147491 141.61757088 C162.62545786 158.03846591 161.55028661 172.33905264 150.01855469 185.13037109 C147.82211581 187.37466268 145.57006751 189.3030868 143.01855469 191.13037109 C142.00921875 191.85740234 142.00921875 191.85740234 140.97949219 192.59912109 C137.29011506 195.08634163 134.6367806 196.85196889 130.01855469 196.13037109 C130.01855469 196.79037109 130.01855469 197.45037109 130.01855469 198.13037109 C124.41193997 198.92860099 118.99060295 199.2857172 113.33105469 199.25537109 C112.59822266 199.25923828 111.86539063 199.26310547 111.11035156 199.26708984 C107.28805853 199.26019662 103.73334704 199.05357393 100.01855469 198.13037109 C100.01855469 197.47037109 100.01855469 196.81037109 100.01855469 196.13037109 C99.02855469 196.04787109 98.03855469 195.96537109 97.01855469 195.88037109 C87.95549504 194.46370045 83.20066441 189.6089951 77.31542969 182.78662109 C75.11576065 180.1558535 75.11576065 180.1558535 72.84667969 178.06396484 C69.63783622 174.66999579 68.56178571 170.46810153 67.01855469 166.13037109 C66.65375 165.27443359 66.28894531 164.41849609 65.91308594 163.53662109 C62.69267722 155.07287543 62.58625627 146.88689327 62.37670898 137.92407227 C62.12926183 127.82236596 61.56281138 117.76631582 60.8352356 107.68838501 C60.70846635 105.91395873 60.58637914 104.13919112 60.46920776 102.36410522 C59.88162655 93.50085591 59.32069763 85.46179407 56.01855469 77.13037109 C55.47489144 74.10494736 55.26237357 71.20248898 55.01855469 68.13037109 C54.35855469 68.13037109 53.69855469 68.13037109 53.01855469 68.13037109 C53.01855469 67.14037109 53.01855469 66.15037109 53.01855469 65.13037109 C52.35855469 65.13037109 51.69855469 65.13037109 51.01855469 65.13037109 C50.58542969 63.52162109 50.58542969 63.52162109 50.14355469 61.88037109 C48.9622585 57.81707855 48.9622585 57.81707855 47.01855469 54.13037109 C46.02855469 53.80037109 45.03855469 53.47037109 44.01855469 53.13037109 C43.68855469 52.14037109 43.35855469 51.15037109 43.01855469 50.13037109 C40.34856451 48.02798486 40.34856451 48.02798486 37.14355469 46.00537109 C36.07363281 45.30154297 35.00371094 44.59771484 33.90136719 43.87255859 C31.10006533 42.03529922 31.10006533 42.03529922 28.01855469 41.13037109 C28.01855469 40.47037109 28.01855469 39.81037109 28.01855469 39.13037109 C26.90480469 39.00662109 25.79105469 38.88287109 24.64355469 38.75537109 C21.5484482 38.38094133 18.58338764 37.81031914 15.54980469 37.09912109 C9.32563125 35.83496168 3.22141649 35.90971737 -3.10644531 36.00537109 C-4.25371094 36.01439453 -5.40097656 36.02341797 -6.58300781 36.03271484 C-9.38271279 36.05604572 -12.18196226 36.08877877 -14.98144531 36.13037109 C-14.98144531 36.79037109 -14.98144531 37.45037109 -14.98144531 38.13037109 C-16.30144531 38.13037109 -17.62144531 38.13037109 -18.98144531 38.13037109 C-18.98144531 38.79037109 -18.98144531 39.45037109 -18.98144531 40.13037109 C-21.62144531 40.46037109 -24.26144531 40.79037109 -26.98144531 41.13037109 C-26.98144531 41.79037109 -26.98144531 42.45037109 -26.98144531 43.13037109 C-28.99316406 44.46240234 -28.99316406 44.46240234 -31.66894531 45.94287109 C-44.55339311 53.47086306 -51.58271382 65.73165193 -55.35302734 79.82617188 C-56.45231912 85.60620875 -56.38723229 91.38719432 -56.31762695 97.24755859 C-56.29382546 99.3911654 -56.29711567 101.53353856 -56.30371094 103.67724609 C-56.27143781 111.70068103 -55.63493613 118.2942724 -52.41894531 125.75537109 C-50.98144531 129.13037109 -50.98144531 129.13037109 -50.41894531 132.00537109 C-50.27457031 132.70662109 -50.13019531 133.40787109 -49.98144531 134.13037109 C-49.32144531 134.46037109 -48.66144531 134.79037109 -47.98144531 135.13037109 C-47.46582031 136.09974609 -46.95019531 137.06912109 -46.41894531 138.06787109 C-39.89993459 149.82147779 -29.65670001 157.26769695 -16.98144531 161.13037109 C-12.44892454 161.84131465 -7.93501822 162.13451822 -3.35644531 162.38037109 C0.72730469 162.62787109 4.81105469 162.87537109 9.01855469 163.13037109 C9.01855469 175.01037109 9.01855469 186.89037109 9.01855469 199.13037109 C-26.72083568 199.53193728 -26.72083568 199.53193728 -38.98144531 192.13037109 C-38.98144531 191.47037109 -38.98144531 190.81037109 -38.98144531 190.13037109 C-40.05394531 190.00662109 -41.12644531 189.88287109 -42.23144531 189.75537109 C-45.36463241 189.23317324 -47.36794258 188.83919981 -49.98144531 187.13037109 C-50.31144531 186.47037109 -50.64144531 185.81037109 -50.98144531 185.13037109 C-52.05652344 184.5096875 -52.05652344 184.5096875 -53.15332031 183.87646484 C-56.66099905 181.71081236 -59.34171406 179.11092042 -62.23144531 176.19287109 C-63.08307251 175.33713501 -63.08307251 175.33713501 -63.9519043 174.46411133 C-69.20610349 169.08080175 -73.7033079 163.32356797 -77.98144531 157.13037109 C-78.65949219 156.16744141 -79.33753906 155.20451172 -80.03613281 154.21240234 C-83.41185038 148.86412692 -85.59716281 142.9675221 -87.98144531 137.13037109 C-88.50158203 135.90447266 -88.50158203 135.90447266 -89.03222656 134.65380859 C-90.65281222 130.6753092 -91.30346868 127.42401593 -90.98144531 123.13037109 C-91.64144531 123.13037109 -92.30144531 123.13037109 -92.98144531 123.13037109 C-94.13183719 115.77706623 -94.17323662 108.500896 -94.16894531 101.06787109 C-94.16886475 99.77905029 -94.16878418 98.49022949 -94.16870117 97.16235352 C-94.03725929 75.24199906 -94.03725929 75.24199906 -90.98144531 69.13037109 C-90.32144531 69.13037109 -89.66144531 69.13037109 -88.98144531 69.13037109 C-88.9440625 68.56189453 -88.90667969 67.99341797 -88.86816406 67.40771484 C-88.11428615 58.55334485 -84.41237253 51.68689833 -79.98144531 44.13037109 C-79.44261719 43.20353516 -78.90378906 42.27669922 -78.34863281 41.32177734 C-75.28042298 36.25166378 -72.41711524 32.20808869 -67.71972656 28.58349609 C-65.76592491 26.95020573 -64.27660641 25.16573858 -62.66894531 23.19287109 C-55.68456167 15.01832342 -46.62094823 9.79279342 -35.98144531 8.13037109 C-35.98144531 7.47037109 -35.98144531 6.81037109 -35.98144531 6.13037109 C-30.87810514 4.2251241 -26.51801825 2.70448087 -20.98144531 3.13037109 C-20.98144531 2.47037109 -20.98144531 1.81037109 -20.98144531 1.13037109 C-13.98706656 0.00627451 -7.07504896 -0.0224003 0 0 Z " fill="#0E256E" transform="translate(104.9814453125,46.86962890625)"/>
<path d="M0 0 C0 11.55 0 23.1 0 35 C-1.98 35 -3.96 35 -6 35 C-6 35.66 -6 36.32 -6 37 C-7.0725 37.37125 -8.145 37.7425 -9.25 38.125 C-13.33805979 39.91713934 -15.00142279 41.9288242 -17 46 C-17.66 49.3 -18.32 52.6 -19 56 C-30.88 56 -42.76 56 -55 56 C-55 41.33333333 -55 41.33333333 -53 36 C-52.64679688 34.97777344 -52.29359375 33.95554688 -51.9296875 32.90234375 C-49.7227003 26.7463763 -47.79848288 21.53910543 -43 17 C-42.34 17 -41.68 17 -41 17 C-40.67 16.01 -40.34 15.02 -40 14 C-38.01833966 12.9641321 -36.01526169 11.96887581 -34 11 C-33.21625 10.360625 -32.4325 9.72125 -31.625 9.0625 C-22.28613843 1.72482305 -11.64544558 0 0 0 Z " fill="#0F2B6C" transform="translate(287,47)"/>
<path d="M0 0 C11.22 0 22.44 0 34 0 C34.09082211 10.82355011 34.16401444 21.64684193 34.20724869 32.47068882 C34.22801206 37.49810144 34.25612092 42.525237 34.30175781 47.55249023 C34.34562092 52.41547762 34.3692214 57.27820064 34.37950897 62.14137077 C34.38682846 63.98508801 34.40111876 65.82879284 34.42292023 67.67239571 C34.57655446 81.2184561 34.42715339 94.66901797 26 106 C25.67 106 25.34 106 25 106 C25.56275818 98.90924697 26.79500527 92.40998947 30 86 C30.09312908 83.31470138 30.12578322 80.65555582 30.11352539 77.97021484 C30.11367142 77.14086929 30.11381744 76.31152374 30.1139679 75.45704651 C30.11326971 72.70831715 30.10548171 69.95965506 30.09765625 67.2109375 C30.09579174 65.30807533 30.09436799 63.40521268 30.09336853 61.50234985 C30.08954599 56.48818644 30.07971793 51.47405189 30.06866455 46.4598999 C30.05844479 41.34566641 30.0538697 36.23142826 30.04882812 31.1171875 C30.03809544 21.07811027 30.02050076 11.03906204 30 1 C20.43 1 10.86 1 1 1 C1 23.11 1 45.22 1 68 C0.67 68 0.34 68 0 68 C0 45.56 0 23.12 0 0 Z " fill="#152A59" transform="translate(233,121)"/>
<path d="M0 0 C0 11.55 0 23.1 0 35 C-1.98 35 -3.96 35 -6 35 C-6 35.66 -6 36.32 -6 37 C-7.0725 37.37125 -8.145 37.7425 -9.25 38.125 C-13.27223334 39.83140202 -14.85529072 42.1871835 -17 46 C-17.66 46.99 -18.32 47.98 -19 49 C-18.33333333 45.66666667 -17.66666667 42.33333333 -17 39 C-16.34 39 -15.68 39 -15 39 C-15 38.34 -15 37.68 -15 37 C-12.69 36.67 -10.38 36.34 -8 36 C-8 35.01 -8 34.02 -8 33 C-6.35 33 -4.7 33 -3 33 C-3 22.77 -3 12.54 -3 2 C-5.31 2.99 -7.62 3.98 -10 5 C-13.30859375 5.51171875 -13.30859375 5.51171875 -16.4375 5.6875 C-17.48808594 5.75324219 -18.53867187 5.81898437 -19.62109375 5.88671875 C-20.40613281 5.92410156 -21.19117188 5.96148437 -22 6 C-22.33 6.99 -22.66 7.98 -23 9 C-25.06640625 9.94921875 -25.06640625 9.94921875 -27.5625 10.6875 C-28.80193359 11.06455078 -28.80193359 11.06455078 -30.06640625 11.44921875 C-30.70449219 11.63097656 -31.34257812 11.81273437 -32 12 C-32 12.66 -32 13.32 -32 14 C-32.66 14 -33.32 14 -34 14 C-34 14.66 -34 15.32 -34 16 C-37.39174061 19.99028307 -40.05813635 21.49595454 -45 23 C-46.83689476 24.49886871 -46.83689476 24.49886871 -48 26 C-47.42676569 22.13066838 -45.61046448 19.84777943 -43 17 C-42.34 17 -41.68 17 -41 17 C-40.67 16.01 -40.34 15.02 -40 14 C-38.01833966 12.9641321 -36.01526169 11.96887581 -34 11 C-32.824375 10.0409375 -32.824375 10.0409375 -31.625 9.0625 C-22.28613843 1.72482305 -11.64544558 0 0 0 Z " fill="#192D5E" transform="translate(287,47)"/>
<path d="M0 0 C12.87 0.495 12.87 0.495 26 1 C26 12.88 26 24.76 26 37 C-8.06043608 37.38270153 -8.06043608 37.38270153 -18 32 C-18 31.67 -18 31.34 -18 31 C-10.91593573 30.75143634 -4.15602342 31.55408671 2.83984375 32.5625 C5.79846801 33.04571153 5.79846801 33.04571153 8 33 C8 33.66 8 34.32 8 35 C15.92 34.505 15.92 34.505 24 34 C24.33 23.44 24.66 12.88 25 2 C19.0172867 2.03933373 19.0172867 2.03933373 13.03466797 2.09008789 C8.57241493 2.1048195 4.39147563 1.91429083 0 1 C0 0.67 0 0.34 0 0 Z " fill="#3F4C7D" transform="translate(88,209)"/>
<path d="M0 0 C0.33 0 0.66 0 1 0 C1.02321876 10.03176634 1.04096359 20.06352624 1.05181217 30.09531403 C1.05702018 34.75398206 1.06407987 39.41263164 1.07543945 44.07128906 C1.08634251 48.57112305 1.09229251 53.07093934 1.09487724 57.57078552 C1.09671815 59.2834857 1.10031291 60.99618496 1.10573006 62.70887756 C1.11303905 65.11648618 1.11398681 67.52402261 1.11352539 69.93164062 C1.11712067 70.63223602 1.12071594 71.33283142 1.12442017 72.05465698 C1.09907244 84.3591678 1.09907244 84.3591678 -1.65625 88.47265625 C-4.75128315 90.48958619 -6.82673629 90.50068688 -10.5 90.4375 C-11.6240625 90.43621094 -12.748125 90.43492187 -13.90625 90.43359375 C-17.19782863 89.97227402 -18.59175311 89.22526734 -21 87 C-19.96359375 87.01160156 -18.9271875 87.02320313 -17.859375 87.03515625 C-16.48958514 87.04453837 -15.11979332 87.05363812 -13.75 87.0625 C-12.72712891 87.07506836 -12.72712891 87.07506836 -11.68359375 87.08789062 C-8.27268829 87.10444842 -5.27851294 86.91456587 -2 86 C-0.74293666 77.12003298 -0.77440775 68.22677447 -0.68359375 59.27734375 C-0.6629901 57.56384316 -0.64199281 55.85034726 -0.62062073 54.13685608 C-0.56575197 49.65385772 -0.51618934 45.17081621 -0.46777344 40.68774414 C-0.41729937 36.10233781 -0.36174931 31.51699319 -0.30664062 26.93164062 C-0.19949038 17.95447996 -0.0979519 8.97726542 0 0 Z " fill="#BAC7D9" transform="translate(231,120)"/>
<path d="M0 0 C0.99 0.66 1.98 1.32 3 2 C1.18884044 3.81115956 -1.61278227 3.38199448 -4.0625 3.5625 C-5.71958984 3.68818359 -5.71958984 3.68818359 -7.41015625 3.81640625 C-8.69212891 3.90728516 -8.69212891 3.90728516 -10 4 C-10.33 4.99 -10.66 5.98 -11 7 C-13.06640625 7.94921875 -13.06640625 7.94921875 -15.5625 8.6875 C-16.80193359 9.06455078 -16.80193359 9.06455078 -18.06640625 9.44921875 C-18.70449219 9.63097656 -19.34257812 9.81273437 -20 10 C-20 10.66 -20 11.32 -20 12 C-20.66 12 -21.32 12 -22 12 C-22 12.66 -22 13.32 -22 14 C-25.39174061 17.99028307 -28.05813635 19.49595454 -33 21 C-34.83689476 22.49886871 -34.83689476 22.49886871 -36 24 C-35.42676569 20.13066838 -33.61046448 17.84777943 -31 15 C-30.34 15 -29.68 15 -29 15 C-28.67 14.01 -28.34 13.02 -28 12 C-26.01833966 10.9641321 -24.01526169 9.96887581 -22 9 C-20.824375 8.0409375 -20.824375 8.0409375 -19.625 7.0625 C-13.83007184 2.50934216 -7.4504665 -0.46565416 0 0 Z " fill="#1E3361" transform="translate(275,49)"/>
<path d="M0 0 C1 2 1 2 0.0625 5.125 C-0.288125 6.07375 -0.63875 7.0225 -1 8 C-1.66 8 -2.32 8 -3 8 C-2.896875 8.804375 -2.79375 9.60875 -2.6875 10.4375 C-3.06532765 14.74473523 -4.58686735 17.23113467 -6.7578125 20.8984375 C-9.27910411 25.1640189 -10.31787823 29.11146064 -11 34 C-11.66 34 -12.32 34 -13 34 C-13.33 46.54 -13.66 59.08 -14 72 C-14.33 72 -14.66 72 -15 72 C-15.5103543 33.02070861 -15.5103543 33.02070861 -12 26 C-11.34 26 -10.68 26 -10 26 C-9.96261719 25.43152344 -9.92523437 24.86304687 -9.88671875 24.27734375 C-9.18816336 16.07274221 -6.01017035 6.01017035 0 0 Z " fill="#555F8B" transform="translate(26,90)"/>
<path d="M0 0 C2.01407396 0.00535917 4.02792499 0.00002908 6.04199219 -0.00634766 C12.45837927 0.00005592 18.67876582 0.11147645 25.01855469 1.13037109 C25.01855469 1.79037109 25.01855469 2.45037109 25.01855469 3.13037109 C28.64855469 3.46037109 32.27855469 3.79037109 36.01855469 4.13037109 C36.01855469 4.46037109 36.01855469 4.79037109 36.01855469 5.13037109 C30.17514911 6.37364888 25.75158974 5.70338071 20.01855469 4.13037109 C20.01855469 3.80037109 20.01855469 3.47037109 20.01855469 3.13037109 C4.97958969 -0.23673761 -16.56013257 0.04081273 -29.98144531 8.13037109 C-33.29394531 7.81787109 -33.29394531 7.81787109 -35.98144531 7.13037109 C-32.7719893 4.28006849 -30.48155983 3.6958541 -26.23144531 3.44287109 C-25.24660156 3.37712891 -24.26175781 3.31138672 -23.24707031 3.24365234 C-22.49941406 3.20626953 -21.75175781 3.16888672 -20.98144531 3.13037109 C-20.98144531 2.47037109 -20.98144531 1.81037109 -20.98144531 1.13037109 C-13.98706656 0.00627451 -7.07504896 -0.0224003 0 0 Z " fill="#2F3F6A" transform="translate(104.9814453125,46.86962890625)"/>
<path d="M0 0 C0.99 0.33 1.98 0.66 3 1 C3.01981934 1.9379541 3.03963867 2.8759082 3.06005859 3.84228516 C3.1384386 7.34253701 3.22514081 10.84238164 3.31738281 14.34228516 C3.35552112 15.853273 3.39039972 17.36434696 3.421875 18.87548828 C3.46785705 21.05532478 3.52579325 23.2345762 3.5859375 25.4140625 C3.6173584 26.7232666 3.6487793 28.0324707 3.68115234 29.38134766 C3.99220244 32.91150425 4.83345888 35.67579636 6 39 C6 40.32 6 41.64 6 43 C6.66 43 7.32 43 8 43 C8 43.99 8 44.98 8 46 C5 45 5 45 3 42 C-0.9710453 28.68531869 -0.18283639 13.77367455 0 0 Z " fill="#12275B" transform="translate(199,161)"/>
<path d="M0 0 C5.04637718 9.14912285 3.09952371 21.84858109 3 32 C3.66 32 4.32 32 5 32 C5.02505615 33.02770508 5.0501123 34.05541016 5.07592773 35.11425781 C5.17119882 38.98349229 5.27111031 42.85259623 5.37231445 46.72167969 C5.41521676 48.38571079 5.45691582 50.04977342 5.49731445 51.71386719 C5.72784639 61.1742149 6.04635153 70.57818714 7 80 C6.34 79.67 5.68 79.34 5 79 C3.78063901 74.87341306 3.88530978 70.78724564 3.90234375 66.51171875 C3.9037587 65.80852005 3.90517365 65.10532135 3.90663147 64.3808136 C3.91219891 62.14966456 3.92474525 59.91861836 3.9375 57.6875 C3.94251921 56.16862125 3.94708138 54.64974091 3.95117188 53.13085938 C3.96215764 49.42053988 3.97939966 45.71027999 4 42 C3.34 42 2.68 42 2 42 C1.97494385 41.29617187 1.9498877 40.59234375 1.92407227 39.8671875 C1.44545579 26.56577349 0.94267566 13.2776869 0 0 Z " fill="#5C6A8D" transform="translate(198,120)"/>
<path d="M0 0 C1.5 1.375 1.5 1.375 3 3 C3 3.66 3 4.32 3 5 C3.66 5 4.32 5 5 5 C5 5.99 5 6.98 5 8 C8.50286723 9.04742598 11.85263952 9.26624843 15.5 9.375 C17.18609375 9.44847656 17.18609375 9.44847656 18.90625 9.5234375 C22.15883674 9.2796033 22.15883674 9.2796033 24.28125 6.7265625 C26.15723673 3.84993496 26.15723673 3.84993496 28 0 C28 2.97 28 5.94 28 9 C27.01 9.33 26.02 9.66 25 10 C24.67 10.99 24.34 11.98 24 13 C21.43106162 14.28446919 19.23423663 14.32977144 16.375 14.5625 C15.37210938 14.64628906 14.36921875 14.73007813 13.3359375 14.81640625 C12.56507813 14.87699219 11.79421875 14.93757812 11 15 C10.89816406 14.36578125 10.79632813 13.7315625 10.69140625 13.078125 C10.34916016 12.04945313 10.34916016 12.04945313 10 11 C7.00384054 9.6954344 7.00384054 9.6954344 4 9 C4 8.34 4 7.68 4 7 C3.34 7 2.68 7 2 7 C2 6.01 2 5.02 2 4 C1.34 4 0.68 4 0 4 C0 2.68 0 1.36 0 0 Z " fill="#2C406E" transform="translate(205,200)"/>
<path d="M0 0 C6.44439354 9.66659031 3.35906398 29.50726956 3.5625 40.8125 C3.60577897 43.06576178 3.64939594 45.3190171 3.69335938 47.57226562 C3.79947149 53.0481086 3.90140523 58.52401678 4 64 C3.67 64 3.34 64 3 64 C1.76582496 54.45700877 1.88759533 44.97741165 1.9375 35.375 C1.94252523 33.68619924 1.94708632 31.99739704 1.95117188 30.30859375 C1.96209601 26.20569289 1.9793042 22.10286273 2 18 C1.34 18 0.68 18 0 18 C0 12.06 0 6.12 0 0 Z " fill="#CED6E8" transform="translate(201,134)"/>
<path d="M0 0 C1.25 1.5625 1.25 1.5625 2 4 C0.75726686 6.48546628 -0.51552739 8.67582571 -2 11 C-3.01446612 12.99270131 -4.01965496 14.99029266 -5 17 C-6.125 13.25 -6.125 13.25 -5 11 C-6.175625 12.2375 -6.175625 12.2375 -7.375 13.5 C-10 16 -10 16 -12 16 C-12 16.99 -12 17.98 -12 19 C-12.66 19 -13.32 19 -14 19 C-12.11385323 11.26679826 -6.53381706 6.375708 -1 1 C-0.67 0.67 -0.34 0.34 0 0 Z " fill="#152669" transform="translate(41,71)"/>
<path d="M0 0 C1.15242188 0.00902344 2.30484375 0.01804688 3.4921875 0.02734375 C4.36101562 0.03894531 5.22984375 0.05054688 6.125 0.0625 C6.125 0.3925 6.125 0.7225 6.125 1.0625 C4.98224609 1.24425781 4.98224609 1.24425781 3.81640625 1.4296875 C0.58237439 1.95456159 -2.64656952 2.5042587 -5.875 3.0625 C-7.08736328 3.26166016 -7.08736328 3.26166016 -8.32421875 3.46484375 C-15.91768522 4.89628716 -23.87764898 7.92938739 -28.875 14.0625 C-29.535 13.7325 -30.195 13.4025 -30.875 13.0625 C-30.25625 12.464375 -29.6375 11.86625 -29 11.25 C-26.73823046 9.05438856 -26.73823046 9.05438856 -24.875 6.0625 C-23.5625 4.375 -23.5625 4.375 -21.875 3.0625 C-20.20888095 3.019779 -18.54117115 3.02186168 -16.875 3.0625 C-15.53312182 2.4132041 -14.20020503 1.74518138 -12.875 1.0625 C-8.53482038 0.1580342 -4.42640582 -0.04516741 0 0 Z " fill="#ABB8CB" transform="translate(280.875,45.9375)"/>
<path d="M0 0 C2.97 0.495 2.97 0.495 6 1 C4.68 1.33 3.36 1.66 2 2 C2 2.66 2 3.32 2 4 C-0.64 4.33 -3.28 4.66 -6 5 C-6 5.66 -6 6.32 -6 7 C-9.4019487 9.09350689 -12.05272412 9.17942163 -16 9 C-16 9.66 -16 10.32 -16 11 C-16.99 11 -17.98 11 -19 11 C-17.73462163 7.2038649 -16.44944589 6.84505245 -13 5 C-12.38253906 4.64292969 -11.76507813 4.28585938 -11.12890625 3.91796875 C-8.66371912 2.85499815 -6.92035018 2.79646029 -4.25 2.875 C-3.45078125 2.89304687 -2.6515625 2.91109375 -1.828125 2.9296875 C-1.22484375 2.95289062 -0.6215625 2.97609375 0 3 C0 2.01 0 1.02 0 0 Z " fill="#122066" transform="translate(84,83)"/>
<path d="M0 0 C0.33 1.32 0.66 2.64 1 4 C1.66 4 2.32 4 3 4 C0.41690305 9.89149699 -5.24238893 14.28112811 -11 17 C-11.99 16.67 -12.98 16.34 -14 16 C-6.6 10 -6.6 10 -3 10 C-3.061875 9.278125 -3.12375 8.55625 -3.1875 7.8125 C-2.96476068 4.47141026 -1.8717754 2.72967245 0 0 Z " fill="#1C3163" transform="translate(254,224)"/>
<path d="M0 0 C2.97 0.495 2.97 0.495 6 1 C6 1.66 6 2.32 6 3 C14.25 3.33 22.5 3.66 31 4 C26.2976866 6.3511567 23.19360965 6.33310687 18.0625 6.3125 C17.26392578 6.32861328 16.46535156 6.34472656 15.64257812 6.36132812 C10.85914553 6.3652912 7.97485423 5.9138969 4 3 C1.80869466 2.30420546 1.80869466 2.30420546 0 2 C0 1.34 0 0.68 0 0 Z " fill="#213066" transform="translate(82,207)"/>
<path d="M0 0 C0 0.66 0 1.32 0 2 C-0.66 2 -1.32 2 -2 2 C-1.67 2.99 -1.34 3.98 -1 5 C-2.32 5 -3.64 5 -5 5 C-5.268125 5.598125 -5.53625 6.19625 -5.8125 6.8125 C-6.98493467 8.97224808 -8.19369282 10.35790256 -10 12 C-10.66 11.67 -11.32 11.34 -12 11 C-14.09821215 11.39938767 -14.09821215 11.39938767 -16 12 C-12.93472671 7.40209007 -5.92699097 0 0 0 Z " fill="#2F3E73" transform="translate(58,59)"/>
<path d="M0 0 C2.89213049 2.1484398 5.15576438 4.19171001 7.4375 7 C10.14563469 10.17049915 12.47195041 11.86676071 16 14 C13.39417629 14.93065133 12.35801776 15.14917407 9.75 14.0625 C9.1725 13.711875 8.595 13.36125 8 13 C8 12.34 8 11.68 8 11 C6.35 10.67 4.7 10.34 3 10 C2.67 8.02 2.34 6.04 2 4 C1.34 4 0.68 4 0 4 C0 2.68 0 1.36 0 0 Z " fill="#1D2E67" transform="translate(60,189)"/>
<path d="M0 0 C0.556875 0.309375 1.11375 0.61875 1.6875 0.9375 C3.95756891 2.0973875 3.95756891 2.0973875 6.4375 2.4375 C9.46980428 3.10312777 11.51205692 4.15181371 14 6 C14 6.99 14 7.98 14 9 C16.31 9 18.62 9 21 9 C21 10.32 21 11.64 21 13 C20.34 13 19.68 13 19 13 C19 12.34 19 11.68 19 11 C17.9275 10.87625 16.855 10.7525 15.75 10.625 C12.6168129 10.10280215 10.61350274 9.70882871 8 8 C7.67 7.34 7.34 6.68 7 6 C6.195625 5.525625 5.39125 5.05125 4.5625 4.5625 C2 3 2 3 0 0 Z " fill="#465381" transform="translate(47,226)"/>
<path d="M0 0 C5.75 1.625 5.75 1.625 8 5 C8.721875 5.433125 9.44375 5.86625 10.1875 6.3125 C13.81817846 8.49090707 16.84589054 11.19129734 20 14 C19.67 14.66 19.34 15.32 19 16 C16.04987143 14.63029745 13.4347778 13.17390875 11 11 C11 10.01 11 9.02 11 8 C9.35 8.33 7.7 8.66 6 9 C5.67 7.02 5.34 5.04 5 3 C3.68 3 2.36 3 1 3 C0.67 2.01 0.34 1.02 0 0 Z " fill="#43527D" transform="translate(155,58)"/>
<path d="M0 0 C0 0.66 0 1.32 0 2 C-1.09699219 2.18175781 -2.19398437 2.36351562 -3.32421875 2.55078125 C-4.77873967 2.80414941 -6.2331617 3.05808573 -7.6875 3.3125 C-8.40873047 3.43044922 -9.12996094 3.54839844 -9.87304688 3.66992188 C-14.23609985 4.44690391 -17.20783075 5.61635076 -21 8 C-24.3125 7.6875 -24.3125 7.6875 -27 7 C-23.79054398 4.1496974 -21.50011452 3.56548301 -17.25 3.3125 C-16.26515625 3.24675781 -15.2803125 3.18101563 -14.265625 3.11328125 C-13.51796875 3.07589844 -12.7703125 3.03851563 -12 3 C-12 2.34 -12 1.68 -12 1 C-7.915021 0.45533613 -4.1274515 0 0 0 Z " fill="#45517F" transform="translate(96,47)"/>
<path d="M0 0 C1.5 1.375 1.5 1.375 3 3 C3 3.66 3 4.32 3 5 C5.475 5.99 5.475 5.99 8 7 C8 7.66 8 8.32 8 9 C7.34 9 6.68 9 6 9 C6.22816406 9.90363281 6.45632812 10.80726562 6.69140625 11.73828125 C6.97886719 12.91777344 7.26632813 14.09726563 7.5625 15.3125 C7.85253906 16.48425781 8.14257812 17.65601563 8.44140625 18.86328125 C9 22 9 22 8 25 C5.72942897 18.95942424 4.51085812 13.43681228 4 7 C3.34 7 2.68 7 2 7 C2 6.01 2 5.02 2 4 C1.34 4 0.68 4 0 4 C0 2.68 0 1.36 0 0 Z " fill="#495784" transform="translate(156,108)"/>
<path d="M0 0 C0.33 0 0.66 0 1 0 C1 2.31 1 4.62 1 7 C-0.98 7 -2.96 7 -5 7 C-5 7.66 -5 8.32 -5 9 C-6.60875 9.556875 -6.60875 9.556875 -8.25 10.125 C-12.27223334 11.83140202 -13.85529072 14.1871835 -16 18 C-16.66 18.99 -17.32 19.98 -18 21 C-17.33333333 17.66666667 -16.66666667 14.33333333 -16 11 C-15.34 11 -14.68 11 -14 11 C-14 10.34 -14 9.68 -14 9 C-10.535 8.505 -10.535 8.505 -7 8 C-7 7.34 -7 6.68 -7 6 C-4.69 6 -2.38 6 0 6 C0 4.02 0 2.04 0 0 Z " fill="#49597C" transform="translate(286,75)"/>
<path d="M0 0 C0.33 0.66 0.66 1.32 1 2 C-0.92191205 7.08741424 -3.53701582 9.93716772 -8 13 C-11.375 13.8125 -11.375 13.8125 -14 14 C-11.14678677 11.06654015 -8.05839963 8.4585315 -4.9375 5.81640625 C-3.01369129 4.01283559 -1.51412072 2.1528904 0 0 Z " fill="#B7C2D6" transform="translate(259,226)"/>
<path d="M0 0 C0.33 0 0.66 0 1 0 C1.34011625 3.16597571 1.67083187 6.3328688 2 9.5 C2.09539062 10.386875 2.19078125 11.27375 2.2890625 12.1875 C2.83514946 17.49234474 3.0996753 22.66737152 3 28 C0.25917648 23.88876472 -0.12740768 20.89485876 -0.09765625 16.015625 C-0.09443359 15.08105469 -0.09121094 14.14648438 -0.08789062 13.18359375 C-0.07951172 12.21550781 -0.07113281 11.24742188 -0.0625 10.25 C-0.05798828 9.26644531 -0.05347656 8.28289062 -0.04882812 7.26953125 C-0.03706483 4.84629209 -0.02062684 2.42317727 0 0 Z " fill="#243868" transform="translate(197,116)"/>
<path d="M0 0 C0.6875 1.8125 0.6875 1.8125 1 4 C-0.078125 5.61328125 -0.078125 5.61328125 -2 7 C-4.99609375 7.3984375 -4.99609375 7.3984375 -8.4375 7.375 C-9.57058594 7.38273438 -10.70367187 7.39046875 -11.87109375 7.3984375 C-15.20479311 6.97392148 -16.57247615 6.25455532 -19 4 C-17.96359375 4.01160156 -16.9271875 4.02320313 -15.859375 4.03515625 C-14.48958514 4.04453837 -13.11979332 4.05363812 -11.75 4.0625 C-10.72712891 4.07506836 -10.72712891 4.07506836 -9.68359375 4.08789062 C-6.30657446 4.10428392 -3.22708361 4.05628768 0 3 C0 2.01 0 1.02 0 0 Z " fill="#C1CFE2" transform="translate(229,203)"/>
<path d="M0 0 C0.99 0.33 1.98 0.66 3 1 C1.35151041 5.63147074 -0.19512 9.92017455 -3 14 C-3.33 14 -3.66 14 -4 14 C-3.66009167 8.62007164 -3.31442207 4.46726453 0 0 Z " fill="#253963" transform="translate(262,213)"/>
<path d="M0 0 C1.15154588 2.82652171 1.07817396 3.81325108 -0.125 6.6875 C-2.40397182 9.49823191 -3.52664423 9.47899663 -7 10 C-8.79385992 11.4579186 -8.79385992 11.4579186 -10 13 C-9.42676569 9.13066838 -7.61046448 6.84777943 -5 4 C-4.34 4 -3.68 4 -3 4 C-2.67 3.01 -2.34 2.02 -2 1 C-1.34 0.67 -0.68 0.34 0 0 Z " fill="#50608C" transform="translate(249,60)"/>
<path d="M0 0 C-2.6855594 2.6855594 -5.37621328 3.06049974 -9 4 C-9 4.66 -9 5.32 -9 6 C-9.66 6 -10.32 6 -11 6 C-11 6.66 -11 7.32 -11 8 C-12.32 8.33 -13.64 8.66 -15 9 C-14.75787346 5.73129165 -13.72467093 4.7045249 -11.4375 2.25 C-7.70025305 -0.72343006 -4.63064353 -0.39919341 0 0 Z " fill="#152D5F" transform="translate(264,55)"/>
<path d="M0 0 C1.31223496 3.93670488 0.24296256 6.12488144 -1 10 C-1.66 10 -2.32 10 -3 10 C-2.98839844 10.56847656 -2.97679687 11.13695313 -2.96484375 11.72265625 C-2.90776806 16.60670484 -3.18043228 21.18503965 -4 26 C-4.33 26 -4.66 26 -5 26 C-5.28827161 16.24681056 -3.98566277 8.877158 0 0 Z " fill="#111E62" transform="translate(19,110)"/>
<path d="M0 0 C-4.30769231 3.93846154 -4.30769231 3.93846154 -7.8125 4.25 C-8.534375 4.1675 -9.25625 4.085 -10 4 C-10.33 4.99 -10.66 5.98 -11 7 C-13.97 6.505 -13.97 6.505 -17 6 C-12.54118072 1.54118072 -6.24960439 -0.64098507 0 0 Z " fill="#1A2962" transform="translate(75,54)"/>
<path d="M0 0 C4.01751046 3.42232372 7.2891114 7.99080039 9 13 C8.1328125 15.28125 8.1328125 15.28125 7 17 C4.70986347 13.5647952 4.82157027 12.014669 5 8 C4.01 8 3.02 8 2 8 C1.34 5.36 0.68 2.72 0 0 Z " fill="#3B4B7D" transform="translate(180,80)"/>
<path d="M0 0 C0.33 0 0.66 0 1 0 C1.16682272 4.92127034 1.24828052 8.50343896 -1 13 C-0.34 13.33 0.32 13.66 1 14 C-0.375 15.5 -0.375 15.5 -2 17 C-2.66 17 -3.32 17 -4 17 C-4.33 17.99 -4.66 18.98 -5 20 C-5.33 19.34 -5.66 18.68 -6 18 C-5.30737334 16.68400934 -4.61148196 15.36966721 -3.90234375 14.0625 C-1.95185231 9.60423385 -1.07924274 4.73029798 0 0 Z " fill="#B4C2D5" transform="translate(266,206)"/>
<path d="M0 0 C3.24290174 4.8643526 5.55811184 10.04680699 5 16 C5.66 16 6.32 16 7 16 C6.67 17.32 6.34 18.64 6 20 C4.09610151 17.14415227 3.30537823 15.0688238 2.375 11.8125 C2.11460937 10.91144531 1.85421875 10.01039062 1.5859375 9.08203125 C1.39257812 8.39496094 1.19921875 7.70789063 1 7 C0.01 7 -0.98 7 -2 7 C-2.33 5.68 -2.66 4.36 -3 3 C-2.01 3.33 -1.02 3.66 0 4 C0 2.68 0 1.36 0 0 Z " fill="#4A5A82" transform="translate(190,96)"/>
<path d="M0 0 C2.97 0.495 2.97 0.495 6 1 C6 1.99 6 2.98 6 4 C6.56589844 4.10957031 7.13179687 4.21914062 7.71484375 4.33203125 C8.44832031 4.49058594 9.18179688 4.64914063 9.9375 4.8125 C10.66839844 4.96332031 11.39929688 5.11414063 12.15234375 5.26953125 C12.76207031 5.51058594 13.37179688 5.75164062 14 6 C14.33 6.99 14.66 7.98 15 9 C9.49005253 8.18971361 5.35522609 6.53354531 1.625 2.3125 C0.820625 1.1678125 0.820625 1.1678125 0 0 Z " fill="#4A5A7F" transform="translate(186,233)"/>
<path d="M0 0 C0.33 0 0.66 0 1 0 C1.24222254 4.11778316 0.36905536 7.13443193 -1 11 C-1.36106097 12.66088045 -1.70462173 14.32618981 -2 16 C-2.33 16 -2.66 16 -3 16 C-4.45008768 7.00246801 -4.45008768 7.00246801 -2.625 2.9375 C-1.78114651 1.93136699 -0.9285452 0.9285452 0 0 Z " fill="#1B2E5E" transform="translate(269,86)"/>
<path d="M0 0 C0.33 0 0.66 0 1 0 C1.26554688 0.86882812 1.53109375 1.73765625 1.8046875 2.6328125 C2.15789062 3.78523437 2.51109375 4.93765625 2.875 6.125 C3.22304687 7.26195312 3.57109375 8.39890625 3.9296875 9.5703125 C4.91496533 12.72751664 5.94272536 15.86627606 7 19 C6.34 18.67 5.68 18.34 5 18 C5 17.01 5 16.02 5 15 C4.34 15 3.68 15 3 15 C0.31780178 9.63560356 -0.3152595 5.98993047 0 0 Z " fill="#B4BCD4" transform="translate(168,200)"/>
<path d="M0 0 C0.33 0.66 0.66 1.32 1 2 C-1.45614035 7 -1.45614035 7 -3 9 C-3.99 9.33 -4.98 9.66 -6 10 C-6 10.99 -6 11.98 -6 13 C-6.66 13 -7.32 13 -8 13 C-6.63589551 7.40717158 -3.84616474 4.08806189 0 0 Z " fill="#4D5886" transform="translate(35,77)"/>
<path d="M0 0 C1.98 0 3.96 0 6 0 C5.67 1.32 5.34 2.64 5 4 C5.66 4 6.32 4 7 4 C6.67 5.32 6.34 6.64 6 8 C2.24623848 6.74874616 1.75926711 5.4347596 0 2 C0 1.34 0 0.68 0 0 Z " fill="#394B79" transform="translate(175,219)"/>
<path d="M0 0 C0.33 0 0.66 0 1 0 C1 2.64 1 5.28 1 8 C1.66 8 2.32 8 3 8 C5.42857143 15.42857143 5.42857143 15.42857143 4 19 C3.01 17.02 2.02 15.04 1 13 C0.67 13 0.34 13 0 13 C0 8.71 0 4.42 0 0 Z " fill="#CED7E5" transform="translate(11,162)"/>
<path d="M0 0 C0.33 0 0.66 0 1 0 C3.29612756 11.52164009 3.29612756 11.52164009 3 17 C1.51171875 15.94921875 1.51171875 15.94921875 0 14 C-0.29296875 10.64453125 -0.29296875 10.64453125 -0.1875 6.8125 C-0.16042969 5.54019531 -0.13335937 4.26789063 -0.10546875 2.95703125 C-0.07066406 1.98121094 -0.03585938 1.00539062 0 0 Z " fill="#0F2357" transform="translate(167,144)"/>
<path d="M0 0 C0.66 0.66 1.32 1.32 2 2 C1.7578125 4.8203125 1.7578125 4.8203125 1.125 8.125 C0.92132813 9.22070312 0.71765625 10.31640625 0.5078125 11.4453125 C0.34023437 12.28835937 0.17265625 13.13140625 0 14 C-2 12 -2 12 -2.01171875 9.43359375 C-1.90472656 8.44488281 -1.79773438 7.45617187 -1.6875 6.4375 C-1.58824219 5.44621094 -1.48898438 4.45492187 -1.38671875 3.43359375 C-1 1 -1 1 0 0 Z " fill="#1B2C66" transform="translate(235,84)"/>
<path d="M0 0 C1.32 0 2.64 0 4 0 C1.66666667 4.66666667 -0.66666667 9.33333333 -3 14 C-3.33 12.68 -3.66 11.36 -4 10 C-3.34 10 -2.68 10 -2 10 C-2.33 9.01 -2.66 8.02 -3 7 C-2.34 7 -1.68 7 -1 7 C-1 5.68 -1 4.36 -1 3 C-0.34 3 0.32 3 1 3 C0.67 2.01 0.34 1.02 0 0 Z " fill="#D6DEF1" transform="translate(23,88)"/>
<path d="M0 0 C2.58396679 -0.08112454 5.16537568 -0.14054748 7.75 -0.1875 C8.47960937 -0.21263672 9.20921875 -0.23777344 9.9609375 -0.26367188 C13.34486604 -0.30981636 15.57858557 -0.25324128 18.515625 1.51171875 C19.00546875 2.00285156 19.4953125 2.49398437 20 3 C14.79166667 2.47916667 9.58333333 1.95833333 4.375 1.4375 C3.53710938 1.35371094 2.69921875 1.26992187 1.8359375 1.18359375 C1.23007813 1.12300781 0.62421875 1.06242187 0 1 C0 0.67 0 0.34 0 0 Z " fill="#12285A" transform="translate(104,80)"/>
<path d="M0 0 C-1 1 -1 1 -3.5625 1.0625 C-4.7690625 1.0315625 -4.7690625 1.0315625 -6 1 C-6 1.66 -6 2.32 -6 3 C-9.375 3.125 -9.375 3.125 -13 3 C-13.66 2.34 -14.32 1.68 -15 1 C-12.87630763 0.63807496 -10.7509887 0.28568253 -8.625 -0.0625 C-6.84996094 -0.35833984 -6.84996094 -0.35833984 -5.0390625 -0.66015625 C-2 -1 -2 -1 0 0 Z " fill="#3A4B74" transform="translate(241,242)"/>
<path d="M0 0 C2.31 0 4.62 0 7 0 C7 0.99 7 1.98 7 3 C10.63 3.33 14.26 3.66 18 4 C18 4.33 18 4.66 18 5 C11.97160702 5.39315606 6.59552979 4.33683045 1 2 C0.67 1.34 0.34 0.68 0 0 Z " fill="#7983A5" transform="translate(70,240)"/>
<path d="M0 0 C0.33 0 0.66 0 1 0 C1.06058594 0.92683594 1.12117188 1.85367188 1.18359375 2.80859375 C1.26738281 4.00613281 1.35117187 5.20367187 1.4375 6.4375 C1.51871094 7.63246094 1.59992187 8.82742187 1.68359375 10.05859375 C1.67656114 12.88570244 1.67656114 12.88570244 3 14 C2.71269945 16.33944736 2.38063221 18.6739143 2 21 C1.67 21 1.34 21 1 21 C0.07907719 16.34462644 -0.12205997 11.85314567 -0.0625 7.125 C-0.05798828 6.43664062 -0.05347656 5.74828125 -0.04882812 5.0390625 C-0.03716336 3.35933665 -0.01923271 1.67965625 0 0 Z " fill="#121F61" transform="translate(44,144)"/>
<path d="M0 0 C0.66 0.99 1.32 1.98 2 3 C0.86280581 6.41158256 -0.04342944 7.11854601 -3 9 C-3.66 9 -4.32 9 -5 9 C-3.90931332 5.22454612 -3.0916909 2.52956528 0 0 Z " fill="#C9D2E4" transform="translate(59,105)"/>
<path d="M0 0 C2.140625 0.40234375 2.140625 0.40234375 4 1 C2.85793642 2.50287218 1.71125043 4.00223284 0.5625 5.5 C-0.39462891 6.75296875 -0.39462891 6.75296875 -1.37109375 8.03125 C-1.90863281 8.6809375 -2.44617187 9.330625 -3 10 C-3.33 10 -3.66 10 -4 10 C-4.33102914 6.3586795 -4.42019439 4.58527075 -2.25 1.5625 C-1.5075 1.046875 -0.765 0.53125 0 0 Z " fill="#2B386E" transform="translate(59,100)"/>
<path d="M0 0 C3.98069267 2.87494471 6.43571997 5.82117329 9 10 C6.03 9.505 6.03 9.505 3 9 C2.67 7.35 2.34 5.7 2 4 C1.34 4 0.68 4 0 4 C0 2.68 0 1.36 0 0 Z " fill="#334174" transform="translate(60,189)"/>
<path d="M0 0 C1.65 0 3.3 0 5 0 C5 0.66 5 1.32 5 2 C5.66 2 6.32 2 7 2 C7.33 2.99 7.66 3.98 8 5 C7.67 5.66 7.34 6.32 7 7 C7.66 7 8.32 7 9 7 C8.67 7.99 8.34 8.98 8 10 C8 9.34 8 8.68 8 8 C7.01 7.67 6.02 7.34 5 7 C4.67 6.01 4.34 5.02 4 4 C2.70644173 2.62804426 1.37701298 1.28817344 0 0 Z " fill="#4D5985" transform="translate(144,93)"/>
<path d="M0 0 C0 0.66 0 1.32 0 2 C-0.66 2 -1.32 2 -2 2 C-1.67 2.99 -1.34 3.98 -1 5 C-3.97 5.66 -6.94 6.32 -10 7 C-3.18421053 0 -3.18421053 0 0 0 Z " fill="#555F8E" transform="translate(58,59)"/>
<path d="M0 0 C3.5875213 1.33250791 6.8364623 2.830717 10 5 C10 5.66 10 6.32 10 7 C7.25 6.875 7.25 6.875 4 6 C1.625 2.9375 1.625 2.9375 0 0 Z " fill="#1E3064" transform="translate(181,227)"/>
<path d="M0 0 C2 3.75 2 3.75 2 6 C2.99 6.33 3.98 6.66 5 7 C6.25 8.875 6.25 8.875 7 11 C6.67 11.99 6.34 12.98 6 14 C3.36 10.37 0.72 6.74 -2 3 C-1.34 2.67 -0.68 2.34 0 2 C0 1.34 0 0.68 0 0 Z " fill="#DAE3F2" transform="translate(179,73)"/>
<path d="M0 0 C3.3 0.33 6.6 0.66 10 1 C10.33 2.65 10.66 4.3 11 6 C7.2089881 4.55049545 3.6125362 2.84827434 0 1 C0 0.67 0 0.34 0 0 Z " fill="#4A5C83" transform="translate(133,87)"/>
<path d="M0 0 C0.66 0.99 1.32 1.98 2 3 C1.34 4.32 0.68 5.64 0 7 C-0.99 7 -1.98 7 -3 7 C-3.33 7.66 -3.66 8.32 -4 9 C-3.38461538 3.46153846 -3.38461538 3.46153846 -1.4375 1.125 C-0.963125 0.75375 -0.48875 0.3825 0 0 Z " fill="#1B325F" transform="translate(243,68)"/>
<path d="M0 0 C-2.93373731 1.95582488 -5.78216298 3.56224304 -9 5 C-9.66 4.67 -10.32 4.34 -11 4 C-10.67 3.01 -10.34 2.02 -10 1 C-6.52674819 -0.1577506 -3.63932552 -0.06866652 0 0 Z " fill="#ABB4CB" transform="translate(69,54)"/>
<path d="M0 0 C0.33 0.66 0.66 1.32 1 2 C1.804375 2.144375 2.60875 2.28875 3.4375 2.4375 C6 3 6 3 8 6 C3.87248551 5.39301257 0.6678852 3.96189209 -3 2 C-2.01 1.34 -1.02 0.68 0 0 Z " fill="#C6D0E1" transform="translate(149,52)"/>
<path d="M0 0 C1.98 0 3.96 0 6 0 C6 0.99 6 1.98 6 3 C6.99 3.33 7.98 3.66 9 4 C6.36 4 3.72 4 1 4 C0.67 2.68 0.34 1.36 0 0 Z " fill="#1A2A67" transform="translate(67,236)"/>
<path d="M0 0 C0.66 0.33 1.32 0.66 2 1 C0 4 0 4 -1.9375 4.875 C-4.66787189 6.36429376 -5.46736205 8.35271628 -7 11 C-7.66 11 -8.32 11 -9 11 C-7.44095325 7.17324889 -4.96833913 4.81992217 -2 2 C-1.34 1.34 -0.68 0.68 0 0 Z " fill="#B4BED6" transform="translate(69,94)"/>
<path d="M0 0 C2.625 0.9375 2.625 0.9375 5 2 C5 3.32 5 4.64 5 6 C2.525 5.01 2.525 5.01 0 4 C0 3.34 0 2.68 0 2 C-0.66 1.67 -1.32 1.34 -2 1 C-1.34 0.67 -0.68 0.34 0 0 Z " fill="#12255B" transform="translate(143,88)"/>
<path d="M0 0 C0.33 0 0.66 0 1 0 C1 2.97 1 5.94 1 9 C-3 10 -3 10 -5 9 C-4.0409375 7.88625 -4.0409375 7.88625 -3.0625 6.75 C-1.21666593 4.2888879 -0.43930826 2.96533074 0 0 Z " fill="#243866" transform="translate(232,200)"/>
<path d="M0 0 C1.32 0 2.64 0 4 0 C4 0.99 4 1.98 4 3 C5.32 3.66 6.64 4.32 8 5 C7.01 6.485 7.01 6.485 6 8 C4.02 5.36 2.04 2.72 0 0 Z " fill="#273669" transform="translate(29,206)"/>
<path d="M0 0 C2.97 0.495 2.97 0.495 6 1 C4.68 1.33 3.36 1.66 2 2 C2 2.66 2 3.32 2 4 C-0.64 4.33 -3.28 4.66 -6 5 C-6 4.34 -6 3.68 -6 3 C-4.02 3 -2.04 3 0 3 C0 2.01 0 1.02 0 0 Z " fill="#4C5685" transform="translate(84,83)"/>
<path d="M0 0 C3.16115776 1.36983503 3.9927092 1.9890638 6 5 C5.67 5.99 5.34 6.98 5 8 C2.5 5.6875 2.5 5.6875 0 3 C0 2.01 0 1.02 0 0 Z " fill="#13295F" transform="translate(170,71)"/>
<path d="M0 0 C0 0.33 0 0.66 0 1 C-1.62463842 1.05395478 -3.24978541 1.09277195 -4.875 1.125 C-5.77992188 1.14820313 -6.68484375 1.17140625 -7.6171875 1.1953125 C-10 1 -10 1 -12 -1 C-7.47907032 -2.45606519 -4.48351204 -1.27032841 0 0 Z " fill="#1B2E65" transform="translate(228,244)"/>
<path d="M0 0 C0.33 1.32 0.66 2.64 1 4 C1.66 4 2.32 4 3 4 C2.67 4.99 2.34 5.98 2 7 C0.35 6.67 -1.3 6.34 -3 6 C-2.01 4.02 -1.02 2.04 0 0 Z " fill="#162F67" transform="translate(254,224)"/>
<path d="M0 0 C1.7592795 3.518559 0.12082678 7.3734168 -1 11 C-2.625 13.5625 -2.625 13.5625 -4 15 C-4.22822613 11.04170312 -3.55050009 8.32148459 -2 4.6875 C-1.62875 3.80449219 -1.2575 2.92148438 -0.875 2.01171875 C-0.58625 1.34785156 -0.2975 0.68398437 0 0 Z " fill="#BEC5E0" transform="translate(53,115)"/>
<path d="M0 0 C0.99 0 1.98 0 3 0 C3.33 2.31 3.66 4.62 4 7 C3.01 7 2.02 7 1 7 C0.67 4.69 0.34 2.38 0 0 Z " fill="#ECF3FB" transform="translate(155,112)"/>
<path d="M0 0 C0.66 0 1.32 0 2 0 C2 2.64 2 5.28 2 8 C-1.3 7.67 -4.6 7.34 -8 7 C-8 6.67 -8 6.34 -8 6 C-5.36 5.67 -2.72 5.34 0 5 C0 3.35 0 1.7 0 0 Z " fill="#102558" transform="translate(264,94)"/>
<path d="M0 0 C0.66 0 1.32 0 2 0 C5.34821429 6.96428571 5.34821429 6.96428571 4 11 C3.32591692 9.73308493 2.66099503 8.46129251 2 7.1875 C1.62875 6.47980469 1.2575 5.77210938 0.875 5.04296875 C0 3 0 3 0 0 Z " fill="#3E467D" transform="translate(18,184)"/>
<path d="M0 0 C3 1 3 1 5 4 C4.625 6.1875 4.625 6.1875 4 8 C4 7.01 4 6.02 4 5 C3.34 5 2.68 5 2 5 C1.67 5.66 1.34 6.32 1 7 C1 5.35 1 3.7 1 2 C0.34 1.67 -0.32 1.34 -1 1 C-0.67 0.67 -0.34 0.34 0 0 Z " fill="#11275E" transform="translate(177,79)"/>
<path d="M0 0 C2.97 0.495 2.97 0.495 6 1 C6 1.66 6 2.32 6 3 C3.36 3.33 0.72 3.66 -2 4 C-2 3.34 -2 2.68 -2 2 C-1.34 2 -0.68 2 0 2 C0 1.34 0 0.68 0 0 Z " fill="#13225E" transform="translate(88,80)"/>
<path d="M0 0 C0.99 0.33 1.98 0.66 3 1 C3.185625 2.2065625 3.185625 2.2065625 3.375 3.4375 C3.58125 4.283125 3.7875 5.12875 4 6 C4.66 6.33 5.32 6.66 6 7 C5.34 7.66 4.68 8.32 4 9 C0 3.375 0 3.375 0 0 Z " fill="#233464" transform="translate(153,101)"/>
<path d="M0 0 C0.99 0.66 1.98 1.32 3 2 C1.37660195 3.70884005 -0.29319053 5.37446717 -2 7 C-2.66 7 -3.32 7 -4 7 C-4 6.01 -4 5.02 -4 4 C-3.01 4 -2.02 4 -1 4 C-0.67 2.68 -0.34 1.36 0 0 Z " fill="#273865" transform="translate(252,230)"/>
<path d="M0 0 C0.66 0.66 1.32 1.32 2 2 C4.57061311 2.64767793 4.57061311 2.64767793 7 3 C7 3.66 7 4.32 7 5 C4.69 5 2.38 5 0 5 C0 3.35 0 1.7 0 0 Z " fill="#10245D" transform="translate(233,96)"/>
<path d="M0 0 C3.08089673 2.77280706 4.68775452 5.06326356 6 9 C4.68 8.67 3.36 8.34 2 8 C1.34 5.36 0.68 2.72 0 0 Z " fill="#536188" transform="translate(180,80)"/>
<path d="M0 0 C0.33 0 0.66 0 1 0 C1 2.31 1 4.62 1 7 C0.01 7 -0.98 7 -2 7 C-1.125 1.125 -1.125 1.125 0 0 Z " fill="#0F285C" transform="translate(257,221)"/>
<path d="M0 0 C0.99 0.33 1.98 0.66 3 1 C2.67 2.32 2.34 3.64 2 5 C0.35 5.33 -1.3 5.66 -3 6 C-2.01 4.02 -1.02 2.04 0 0 Z " fill="#1C3062" transform="translate(262,213)"/>
<path d="M0 0 C1.65 0 3.3 0 5 0 C5 0.66 5 1.32 5 2 C3.02 2.66 1.04 3.32 -1 4 C-0.67 2.68 -0.34 1.36 0 0 Z " fill="#434C7B" transform="translate(73,88)"/>
<path d="M0 0 C0.99 0.33 1.98 0.66 3 1 C0.03 3.475 0.03 3.475 -3 6 C-2.625 3.5625 -2.625 3.5625 -2 1 C-1.34 0.67 -0.68 0.34 0 0 Z " fill="#E2ECF6" transform="translate(251,55)"/>
</svg>
